<?xml version="1.0" standalone="no"?>
<!DOCTYPE svg PUBLIC "-//W3C//DTD SVG 20010904//EN"
 "http://www.w3.org/TR/2001/REC-SVG-20010904/DTD/svg10.dtd">
<svg version="1.0" xmlns="http://www.w3.org/2000/svg"
 width="512.000000pt" height="512.000000pt" viewBox="0 0 512.000000 512.000000"
 preserveAspectRatio="xMidYMid meet">
<metadata>
Created by potrace 1.14, written by Peter Selinger 2001-2017
</metadata>
<g transform="translate(0.000000,512.000000) scale(0.100000,-0.100000)"
fill="#000000" stroke="none">
<path d="M0 5111 c0 -6 8 -16 19 -23 10 -7 153 -144 317 -304 164 -159 326
-315 359 -346 33 -31 57 -60 53 -64 -8 -7 -149 123 -478 441 -108 105 -213
206 -233 224 l-37 35 0 -486 0 -486 125 -78 c69 -42 125 -79 125 -81 0 -6 -77
35 -133 71 -29 18 -67 41 -85 50 l-32 17 0 -88 0 -88 63 -34 c34 -18 197 -102
362 -185 l300 -152 75 130 c148 259 386 510 628 663 109 70 268 147 414 202
141 52 273 89 284 79 8 -8 -5 -48 -16 -48 -4 0 -7 8 -5 18 1 9 0 11 -2 5 -3
-7 -8 -13 -13 -13 -5 0 -11 6 -13 13 -3 6 -6 3 -6 -8 -1 -16 -3 -17 -11 -5 -8
13 -11 13 -22 1 -7 -8 -8 -11 -3 -9 6 3 16 0 23 -8 7 -8 10 -14 6 -14 -3 0 -3
-6 2 -13 5 -7 1 -4 -8 6 -10 11 -25 17 -33 13 -8 -3 -19 2 -24 12 -7 10 -11
12 -11 4 0 -7 -7 -12 -16 -10 -10 2 -23 -9 -33 -29 -18 -37 -35 -44 -26 -10 6
21 5 21 -8 -2 -14 -23 -15 -23 -25 -5 -6 10 -12 14 -12 7 0 -6 -3 -20 -6 -30
-5 -15 -4 -15 5 -3 5 8 13 11 18 7 10 -11 -17 -27 -34 -20 -7 3 -10 10 -7 15
4 6 1 9 -7 6 -16 -5 -49 -69 -42 -80 2 -5 -1 -8 -6 -8 -12 0 -10 27 2 48 5 6
4 12 -2 12 -5 0 -13 -9 -16 -20 -7 -22 -20 -26 -30 -10 -3 6 1 13 9 16 9 3 13
10 10 15 -3 5 0 9 5 9 6 0 11 4 11 10 0 5 -7 7 -15 4 -8 -4 -15 -12 -15 -19 0
-7 -7 -18 -15 -25 -18 -15 -20 1 -3 18 9 9 9 12 0 12 -7 0 -12 -5 -12 -11 0
-5 -5 -7 -10 -4 -6 4 -5 -5 2 -20 8 -19 14 -22 20 -13 8 10 9 10 6 0 -2 -8 -8
-14 -13 -15 -15 -2 -33 -21 -28 -30 3 -4 11 -3 19 4 12 10 13 9 8 -5 -3 -9
-12 -15 -18 -14 -19 5 -69 -54 -54 -63 7 -4 16 -5 20 -3 4 3 8 0 8 -6 0 -7 -6
-10 -12 -7 -7 2 -18 -3 -25 -12 -10 -14 -11 -13 -6 7 3 13 1 22 -6 22 -7 0
-10 -4 -6 -9 3 -5 1 -12 -5 -16 -5 -3 -10 3 -10 13 0 11 -7 22 -15 26 -8 3
-15 1 -15 -4 0 -6 5 -10 12 -10 6 0 3 -7 -8 -15 -12 -9 -14 -14 -6 -15 15 0 6
-20 -9 -20 -6 0 -7 5 -4 10 3 6 1 10 -4 10 -6 0 -11 -5 -11 -12 0 -6 -3 -8 -7
-5 -3 4 -15 0 -24 -9 -17 -15 -19 -15 -25 -1 -5 13 -9 14 -24 4 -11 -6 -15
-14 -9 -18 6 -3 4 -11 -6 -19 -13 -11 -15 -10 -9 4 3 9 1 16 -5 16 -6 0 -11
-5 -11 -10 0 -7 -7 -7 -21 1 -24 12 -50 -3 -28 -16 8 -5 10 -4 5 3 -10 17 3
15 20 -3 12 -11 13 -19 4 -32 -11 -17 -11 -17 -6 0 3 9 1 17 -4 17 -6 0 -10
-5 -10 -11 0 -6 -9 -8 -20 -4 -30 9 -24 -10 6 -21 l26 -9 -23 -24 c-18 -19
-19 -25 -8 -33 11 -8 10 -9 -3 -4 -10 3 -18 0 -18 -6 0 -7 -4 -7 -12 -1 -12 9
-45 10 -53 1 -1 -2 -6 -14 -10 -27 -5 -16 -4 -21 4 -17 6 4 11 14 11 22 0 8 5
14 11 14 5 0 7 -5 3 -11 -3 -6 0 -15 7 -20 7 -4 10 -11 6 -16 -5 -4 -11 -2
-15 4 -5 8 -12 8 -26 -2 -10 -8 -15 -18 -11 -24 3 -6 -1 -11 -10 -11 -13 0
-14 4 -5 21 16 30 9 31 -30 7 -23 -13 -30 -23 -21 -26 7 -2 17 2 22 9 7 11 9
11 9 1 0 -7 -12 -17 -26 -22 -30 -12 -44 -13 -27 -2 8 5 9 13 3 22 -8 12 -10
11 -11 -5 -1 -11 -1 -24 0 -28 1 -4 -7 -10 -16 -14 -10 -4 -21 -11 -25 -17
-11 -16 -10 -38 2 -31 6 3 10 1 10 -5 0 -7 -6 -10 -14 -7 -8 3 -16 -2 -19 -11
-3 -9 -8 -26 -13 -36 -5 -14 -4 -17 4 -12 7 4 12 2 12 -3 0 -16 -16 -13 -30 4
-7 8 -16 12 -21 9 -5 -3 -6 2 -3 11 4 11 2 14 -9 9 -10 -3 -18 2 -22 15 -3 12
-14 21 -23 21 -14 0 -13 -2 2 -13 13 -10 16 -20 12 -35 -4 -12 -12 -20 -17
-17 -5 4 -9 -1 -9 -9 0 -9 5 -16 10 -16 6 0 10 5 10 11 0 8 4 8 14 0 11 -9 15
-9 18 0 3 9 9 9 22 2 13 -7 15 -13 7 -17 -6 -4 -11 -1 -11 6 -1 21 -30 -23
-30 -45 0 -10 4 -15 10 -12 6 3 7 -1 3 -10 -5 -13 -7 -14 -14 -3 -7 10 -15 7
-36 -14 -15 -15 -24 -31 -19 -35 4 -4 11 -1 15 6 5 8 11 9 15 3 3 -6 0 -12 -6
-15 -7 -2 -9 -8 -5 -13 5 -5 15 -1 23 10 7 11 16 17 20 14 3 -4 -4 -16 -15
-27 -12 -12 -23 -16 -27 -10 -4 6 -11 6 -20 -2 -9 -7 -14 -8 -14 -1 0 6 5 12
12 14 9 3 9 6 1 11 -7 5 -17 -1 -23 -13 -9 -16 -7 -24 6 -38 13 -12 19 -13 22
-4 2 6 9 12 15 12 6 0 4 -7 -5 -16 -12 -12 -20 -14 -36 -5 -27 15 -32 14 -32
-4 0 -8 -5 -15 -11 -15 -6 0 4 25 22 56 18 32 28 59 22 63 -10 6 -13 51 -3 51
3 0 12 -5 20 -10 13 -9 13 -11 0 -20 -8 -5 -10 -10 -5 -10 12 0 49 40 37 40
-4 0 2 7 12 15 11 8 16 18 12 22 -4 5 -16 -2 -25 -14 -12 -14 -22 -18 -32 -13
-8 5 -19 4 -28 -3 -12 -10 -13 -8 -7 13 6 23 6 23 -9 -3 -13 -22 -14 -31 -4
-43 9 -11 8 -14 -4 -14 -9 0 -19 9 -22 20 -4 11 -11 17 -17 14 -7 -4 -6 -9 1
-14 7 -3 9 -14 6 -22 -4 -9 -2 -19 4 -23 6 -3 9 0 5 8 -4 11 1 13 20 10 14 -3
26 -10 26 -15 0 -20 -54 -101 -58 -88 -3 8 0 16 7 18 6 2 11 10 11 17 0 8 7
21 16 30 9 9 13 19 9 23 -4 4 -10 1 -12 -6 -3 -7 -11 -19 -19 -26 -8 -8 -14
-19 -14 -24 0 -5 -7 -15 -16 -23 -14 -12 -14 -14 2 -26 13 -9 14 -16 6 -26 -9
-10 -9 -16 0 -25 6 -6 8 -15 4 -19 -4 -4 -11 -1 -16 7 -6 8 -10 11 -10 5 0 -5
-4 -3 -10 5 -5 8 -12 11 -17 7 -4 -5 -2 -11 5 -16 9 -6 9 -13 -1 -34 -6 -15
-15 -27 -19 -27 -12 0 -10 14 4 28 15 15 7 22 -32 27 -30 4 -31 3 -14 -9 14
-11 21 -11 26 -3 5 8 8 6 8 -5 0 -19 -14 -31 -24 -21 -4 4 -17 8 -29 9 -12 2
-16 0 -9 -2 6 -3 12 -13 12 -22 0 -14 2 -14 9 -3 5 7 14 10 21 6 9 -6 9 -10
-1 -17 -11 -8 -10 -9 4 -4 18 6 25 -18 7 -29 -6 -3 -10 -2 -10 4 0 6 -7 8 -15
5 -9 -4 -15 -1 -15 7 0 10 -3 10 -11 2 -6 -6 -19 -9 -28 -6 -12 4 -13 3 -2 -5
8 -6 11 -19 7 -33 -3 -13 -3 -18 0 -11 8 18 24 15 24 -5 0 -15 2 -16 10 -3 6
9 10 10 10 3 0 -6 3 -20 6 -30 4 -11 3 -14 -3 -7 -4 6 -16 10 -25 8 -10 -1
-20 2 -24 7 -8 14 -24 11 -24 -6 0 -8 7 -16 15 -16 28 -3 33 -4 41 -11 4 -5
-6 -9 -22 -9 -23 -1 -25 -3 -6 -6 12 -2 22 -11 22 -20 0 -9 -6 -13 -14 -10 -7
3 -19 0 -25 -6 -9 -9 -10 -8 -5 7 5 13 4 17 -3 13 -6 -4 -14 -1 -16 5 -4 9 -6
9 -6 1 -1 -6 -11 -9 -23 -7 -15 3 -12 0 8 -9 18 -8 35 -20 39 -27 6 -9 10 -9
16 1 6 10 9 8 9 -9 0 -13 4 -20 10 -17 6 4 8 11 5 16 -9 14 2 11 19 -7 9 -8
25 -16 36 -17 21 -1 26 -12 11 -21 -5 -4 -12 0 -14 6 -4 10 -6 10 -6 1 -1 -10
-8 -10 -28 -2 -16 6 -39 13 -53 15 -14 3 -40 10 -58 15 -41 13 -40 21 24 159
24 54 44 100 44 104 0 3 -91 50 -203 104 -111 55 -271 135 -354 179 l-153 81
0 -317 0 -318 265 -84 c146 -46 265 -87 265 -91 0 -3 -33 4 -72 17 -40 13
-131 40 -203 60 -72 21 -158 45 -193 55 l-62 19 0 -170 0 -169 38 0 c21 0 43
-5 50 -12 8 -8 12 -57 12 -154 l0 -142 168 -1 c133 -2 174 1 197 13 16 8 34
12 39 8 6 -4 26 -7 44 -7 21 0 32 -4 32 -13 0 -10 -8 -13 -25 -10 -14 3 -25 1
-25 -5 0 -5 -6 -4 -14 2 -9 8 -16 8 -20 2 -4 -6 -13 -8 -21 -4 -10 3 -15 -1
-15 -12 0 -16 -14 -17 -166 -11 -92 3 -169 8 -172 11 -20 20 -24 -6 -20 -124
6 -144 8 -141 -69 -141 l-33 0 0 -231 0 -231 23 6 c108 32 250 66 254 62 4 -4
-89 -35 -235 -77 l-42 -12 0 -70 c0 -62 2 -69 18 -64 115 38 218 67 226 64 6
-2 -47 -23 -117 -48 l-127 -44 0 -258 0 -258 43 25 c111 64 483 264 572 308
55 27 110 59 122 71 36 36 53 48 53 39 0 -5 -9 -19 -20 -32 -30 -34 -24 -38 9
-6 18 17 31 24 35 17 4 -6 3 -11 -2 -11 -11 0 -24 -33 -26 -67 -2 -22 -32 -63
-48 -63 -15 0 -8 23 14 41 11 11 18 22 14 26 -3 4 -13 -3 -22 -15 -18 -26 -34
-29 -34 -6 0 21 1 22 -207 -94 -98 -54 -251 -139 -340 -188 l-163 -89 0 -93 0
-93 37 25 37 25 37 -67 c21 -37 38 -74 38 -82 0 -8 -33 -39 -74 -69 l-75 -54
0 -334 0 -333 439 0 439 0 -212 209 c-116 115 -282 278 -368 363 -131 127
-175 178 -155 178 1 0 70 -66 152 -148 83 -81 255 -249 383 -374 l232 -228
409 0 410 0 10 38 c30 114 101 403 101 411 0 6 -15 17 -32 25 -237 106 -329
159 -321 184 4 13 3 14 -5 3 -16 -23 -33 -4 -22 25 8 19 6 31 -6 47 -15 20
-16 20 -9 2 8 -22 9 -54 1 -62 -8 -8 -180 116 -264 191 l-32 29 22 24 22 23
28 -27 c21 -20 28 -23 28 -11 0 9 -3 18 -7 21 -5 2 -2 2 6 0 9 -2 11 2 7 13
-3 8 -6 18 -6 20 0 3 -6 2 -12 -3 -7 -4 -26 -8 -42 -9 -17 -1 -23 1 -16 6 9 5
9 9 1 14 -6 4 -11 2 -11 -3 0 -6 -11 -1 -25 11 -23 20 -23 22 -7 34 11 8 19 9
23 2 4 -6 12 -7 19 -3 9 5 11 4 6 -4 -5 -7 -16 -9 -29 -5 -19 6 -20 5 -8 -9 7
-9 17 -15 21 -12 5 3 12 1 15 -5 5 -8 11 -8 20 0 19 16 53 -4 61 -35 3 -14 10
-25 15 -25 5 0 9 -5 9 -11 0 -8 -5 -8 -15 1 -9 8 -15 9 -15 2 0 -6 5 -14 11
-17 6 -5 4 -11 -7 -19 -11 -9 -13 -15 -6 -20 6 -4 9 -14 6 -24 -5 -14 -4 -14
4 -3 6 8 8 21 5 30 -3 12 -2 12 7 -2 6 -9 9 -21 6 -25 -2 -4 -1 -14 4 -22 8
-13 12 -13 26 1 11 11 12 19 5 23 -6 4 -11 0 -11 -9 0 -9 -4 -14 -9 -10 -10 5
18 65 30 65 4 0 12 -7 19 -15 16 -19 34 -19 26 0 -3 8 -1 15 4 15 15 0 12 -27
-5 -44 -19 -19 -19 -30 -1 -23 10 4 13 1 9 -9 -8 -21 -21 -17 -29 8 -6 21 -7
21 -20 3 -19 -26 -18 -40 2 -24 15 12 16 11 11 -11 -4 -14 -4 -19 -1 -12 8 17
27 15 21 -2 -6 -16 19 -30 28 -16 4 6 11 10 18 10 8 0 8 -3 -1 -12 -7 -7 -12
-16 -12 -21 0 -5 7 -2 14 6 15 15 16 53 2 75 -5 8 -2 10 9 6 9 -4 13 -13 10
-24 -7 -21 14 -31 44 -23 16 4 21 1 20 -13 0 -11 -3 -14 -6 -6 -6 16 -23 16
-23 -1 0 -8 12 -19 26 -26 22 -10 25 -9 21 2 -3 8 2 14 11 14 21 0 42 -16 42
-31 0 -6 -7 -3 -14 7 -13 16 -32 25 -23 10 3 -5 -1 -13 -8 -20 -11 -10 -15
-10 -18 0 -3 7 -6 -1 -6 -18 0 -21 2 -26 8 -16 5 7 13 11 19 7 6 -3 13 2 15
11 4 15 5 15 6 -2 0 -11 10 -28 21 -38 13 -10 17 -23 13 -34 -6 -16 -5 -17 11
-3 11 8 14 16 7 18 -6 2 -11 8 -11 14 0 6 8 4 18 -5 10 -10 22 -14 26 -10 4 4
4 -1 0 -11 -5 -12 -9 -14 -14 -6 -5 8 -9 7 -13 -5 -4 -9 -3 -13 2 -10 5 3 13
0 17 -7 5 -8 10 -6 15 8 7 17 8 16 9 -6 l1 -25 10 25 c7 17 7 26 -1 28 -5 2
-8 8 -4 13 3 5 14 -1 24 -13 15 -17 19 -19 20 -8 0 9 -4 21 -10 28 -5 7 -3 6
6 -2 20 -17 11 -48 -11 -40 -9 4 -15 0 -15 -10 0 -12 5 -14 25 -6 19 7 23 6
18 -5 -3 -8 -9 -13 -13 -10 -5 3 -12 0 -16 -6 -4 -8 -3 -9 4 -5 7 4 12 2 12
-5 0 -10 3 -10 12 -1 17 17 28 15 29 -5 0 -10 5 -5 9 11 5 16 7 33 4 38 -3 4
0 8 6 8 6 0 11 -12 10 -27 -3 -48 0 -64 10 -58 6 4 8 10 5 15 -3 5 -1 11 5 15
5 3 10 1 10 -4 0 -6 5 -11 11 -11 6 0 9 7 5 15 -3 8 -1 15 4 15 6 0 10 -4 10
-10 0 -5 8 -7 18 -4 9 2 7 -1 -6 -7 -24 -13 -29 -34 -10 -45 8 -5 9 -2 5 10
-10 26 16 15 28 -12 5 -12 13 -22 18 -22 4 0 5 5 2 10 -3 6 -1 10 4 10 6 0 11
-10 11 -21 0 -16 -5 -20 -20 -16 -16 4 -22 -1 -26 -21 -13 -55 -64 -250 -88
-334 l-24 -88 184 0 c139 0 186 3 188 12 2 7 9 29 15 48 10 34 10 33 5 -12
l-5 -48 230 0 231 0 0 150 c0 127 2 150 15 150 13 0 15 -23 15 -150 l0 -150
937 0 937 0 -35 38 c-19 20 -65 69 -101 107 -204 216 -478 522 -478 533 0 21
14 13 45 -26 39 -49 401 -452 507 -565 l83 -88 142 3 142 3 -117 122 c-64 68
-191 197 -281 288 -90 91 -161 168 -156 173 4 4 62 -50 129 -119 66 -70 195
-204 286 -298 l164 -172 148 2 148 1 0 486 0 487 -153 88 c-83 48 -209 120
-278 160 -174 99 -173 98 -157 119 12 16 19 14 88 -29 41 -25 134 -79 205
-118 72 -40 166 -93 210 -118 l80 -46 3 267 c2 206 -1 267 -10 274 -10 6 -10
8 0 8 8 0 12 20 12 68 l0 67 -58 16 c-325 90 -309 85 -299 95 4 4 55 -7 114
-25 59 -17 138 -40 176 -50 l67 -20 -2 387 -3 387 -126 5 -126 5 -6 -145 c-5
-147 -21 -250 -38 -250 -7 0 -15 74 -10 103 0 4 -2 7 -7 7 -11 0 -34 58 -27
70 3 5 0 10 -8 10 -8 0 -17 7 -21 15 -3 8 -2 15 3 15 5 0 8 19 7 43 0 29 -8
50 -24 67 l-22 25 -393 1 c-624 3 -657 3 -657 13 0 16 63 19 560 31 262 6 485
13 497 16 13 4 20 11 16 20 -3 8 -9 11 -14 8 -5 -3 -9 0 -9 5 0 10 7 12 50 15
8 1 13 6 10 11 -3 6 -12 9 -20 8 -8 -1 -18 4 -22 10 -11 18 -10 29 3 21 12 -7
29 13 29 36 0 13 -1 13 -10 0 -9 -13 -12 -13 -21 3 -6 9 -14 15 -20 12 -5 -4
-9 1 -9 10 0 9 5 13 10 10 6 -3 10 -2 10 4 0 5 9 13 20 16 11 4 18 11 14 16
-3 6 -12 8 -20 5 -7 -3 -16 -1 -20 5 -8 13 15 41 28 33 6 -4 5 4 -2 16 -10 18
-14 20 -21 9 -6 -10 -9 -10 -9 -2 0 7 -6 11 -12 10 -7 -2 -3 1 10 7 25 11 30
33 7 33 -8 0 -15 -4 -15 -9 0 -5 -4 -6 -10 -3 -16 10 -12 38 5 31 8 -3 15 -1
15 5 0 6 4 7 10 4 5 -3 7 0 4 8 -3 8 -14 12 -28 10 -15 -3 -25 1 -29 11 -4 9
-2 16 3 16 6 0 10 -6 11 -12 1 -7 4 -2 8 12 5 16 3 31 -6 41 -15 18 -18 43 -3
34 6 -3 10 -1 10 5 0 6 -8 9 -18 6 -11 -4 -22 2 -31 16 -11 18 -11 20 2 15 9
-3 18 1 21 10 4 9 -1 17 -12 20 -14 3 -18 13 -17 36 3 38 -10 58 -32 50 -13
-5 -15 -2 -10 11 4 10 7 20 7 22 0 3 4 2 10 -1 6 -3 7 1 4 10 -5 12 -9 13 -20
4 -11 -9 -14 -8 -16 2 -3 30 -4 35 -16 56 -8 14 -9 24 -2 28 5 3 10 12 10 18
0 8 -3 8 -8 2 -13 -18 -32 -15 -32 5 0 14 5 18 17 13 11 -4 14 -3 9 6 -5 7
-14 10 -21 7 -8 -3 -21 6 -29 19 -20 30 -20 35 -1 35 8 0 12 6 9 14 -3 8 -15
11 -31 8 -18 -3 -24 -1 -19 7 4 6 12 8 18 5 6 -4 8 -2 4 4 -3 6 -2 13 4 17 6
4 8 11 4 16 -3 6 -14 0 -25 -12 -23 -27 -25 -12 -3 19 9 13 13 26 10 29 -3 4
-6 1 -6 -5 0 -7 -6 -12 -14 -12 -8 0 -16 -5 -18 -12 -3 -9 -6 -9 -12 0 -4 7
-2 12 3 12 6 0 11 6 11 14 0 8 6 17 13 20 6 3 2 3 -10 0 -15 -3 -23 -1 -23 7
0 7 -7 21 -16 31 -15 16 -15 18 0 24 9 3 13 11 10 16 -4 7 -9 7 -13 0 -3 -5
-15 -6 -26 -1 -16 6 -17 8 -3 8 9 1 20 6 24 13 4 6 3 8 -3 5 -12 -8 -26 20
-18 33 3 5 0 12 -6 16 -8 5 -9 3 -4 -6 5 -8 3 -11 -6 -8 -8 3 -13 12 -13 21 1
9 -2 15 -6 12 -11 -7 -22 24 -13 37 3 6 1 8 -4 5 -6 -4 -18 4 -27 18 -9 14
-23 25 -31 25 -8 0 -15 4 -15 9 0 21 -53 66 -73 64 -12 -1 -16 0 -9 3 9 4 7
10 -6 22 -10 10 -12 13 -5 8 8 -5 16 -6 19 -3 9 9 -5 27 -22 27 -8 0 -14 7
-14 15 0 10 -6 12 -17 8 -16 -6 -16 -5 -4 10 12 15 11 17 -3 17 -9 0 -16 -5
-16 -11 0 -5 -4 -8 -10 -4 -6 3 -6 15 0 30 6 15 6 27 0 30 -6 4 -10 -1 -10 -9
0 -9 -4 -16 -9 -16 -11 0 -36 30 -25 30 5 1 -4 7 -21 15 -16 7 -24 14 -17 14
7 1 11 5 8 10 -3 5 -16 7 -28 3 -16 -4 -19 -2 -12 9 4 8 9 20 10 27 2 10 -1
11 -12 1 -13 -11 -18 -6 -15 16 1 6 -5 2 -13 -8 -9 -12 -16 -14 -21 -8 -3 6
-1 11 5 11 6 0 10 8 8 18 -4 19 -28 24 -41 7 -5 -6 -7 -4 -6 5 3 29 -1 38 -26
54 -25 16 -25 16 -13 -3 6 -11 16 -17 20 -15 4 3 8 -3 8 -12 0 -14 -6 -12 -30
11 -24 23 -28 31 -18 44 10 13 10 14 -2 4 -21 -20 -32 -15 -26 10 3 12 3 16 0
10 -3 -7 -10 -13 -15 -13 -6 0 -7 5 -3 12 4 6 3 8 -3 5 -11 -7 -28 20 -24 36
1 4 -7 3 -18 -3 -30 -16 -36 -13 -57 25 -10 19 -21 30 -25 24 -4 -7 -12 -5
-22 5 -11 12 -17 13 -20 3 -3 -6 -6 -1 -7 13 -1 14 -4 19 -7 12 -4 -10 -11 -5
-24 15 -10 15 -19 22 -19 16 0 -7 -4 -13 -10 -13 -5 0 -10 7 -10 15 0 8 -5 15
-11 15 -5 0 -7 -4 -4 -10 3 -5 1 -10 -4 -10 -6 0 -11 5 -11 11 0 5 -4 7 -10 4
-6 -3 -10 -1 -10 4 0 6 -4 11 -10 11 -5 0 -10 -7 -10 -16 0 -8 -4 -13 -8 -10
-5 3 -8 19 -7 35 1 17 -4 32 -11 35 -8 3 -11 0 -7 -10 3 -7 1 -14 -5 -14 -6 0
-13 6 -15 13 -4 10 -6 10 -6 0 -1 -7 -6 -13 -12 -13 -6 0 -9 6 -6 13 3 7 -8
20 -24 29 -28 16 -29 16 -29 -2 0 -11 -4 -20 -10 -20 -5 0 -7 6 -4 14 3 8 1
23 -5 33 -9 16 -10 15 -11 -9 0 -16 -4 -28 -10 -28 -5 0 -7 6 -4 13 2 7 -3 21
-12 32 -8 11 -12 14 -8 6 4 -9 2 -12 -7 -9 -8 3 -14 10 -14 16 0 17 -12 23
-13 7 -1 -8 -3 -22 -4 -30 -1 -8 -5 -12 -9 -10 -4 3 -5 14 -2 25 3 11 0 20 -6
20 -6 0 -11 -6 -11 -13 0 -7 -6 -22 -14 -32 -12 -17 -13 -16 -10 18 4 35 -9
52 -19 25 -2 -7 -3 -6 -2 3 1 9 -1 23 -6 30 -7 11 -9 9 -10 -6 -1 -11 -1 -23
0 -27 0 -5 -3 -8 -9 -8 -5 0 -10 10 -10 22 0 21 0 21 -15 2 -14 -18 -14 -18
-16 11 -1 29 -1 29 -8 5 -5 -19 -9 -21 -15 -11 -7 11 -12 9 -23 -10 l-14 -24
5 27 c4 15 2 30 -4 33 -5 3 -10 -3 -10 -14 0 -12 -5 -21 -10 -21 -6 0 -8 12
-6 28 l5 27 -19 -25 c-18 -23 -20 -23 -20 -5 -1 18 -2 18 -10 -2 -11 -27 -18
-30 -16 -5 1 11 -5 16 -17 14 -9 -2 -20 5 -24 14 -5 13 -8 11 -19 -12 -12 -28
-12 -28 -13 -5 -1 24 -1 24 -17 5 -14 -18 -15 -18 -9 6 6 23 5 24 -9 7 -14
-18 -14 -18 -21 2 -3 12 -10 19 -15 16 -4 -3 -32 11 -61 30 l-54 35 36 0 c58
0 267 -29 398 -56 132 -27 318 -89 446 -148 43 -20 79 -36 80 -36 1 0 15 19
30 43 15 23 58 85 95 137 36 52 108 156 160 230 51 74 115 165 142 201 26 37
48 69 48 73 0 3 -341 6 -757 6 l-758 0 0 -217 c0 -167 -3 -217 -13 -221 -10
-3 -12 40 -10 217 l3 221 -989 0 -989 0 20 -22 c165 -183 368 -427 361 -433
-3 -3 -94 98 -204 225 l-199 230 -297 0 c-180 0 -298 -4 -298 -9z m2450 -476
c-38 -28 -44 -30 -35 -12 4 6 -1 3 -9 -7 -11 -13 -16 -15 -16 -6 0 9 -5 8 -20
-5 -11 -10 -17 -22 -13 -28 4 -6 1 -7 -6 -2 -9 5 -10 10 -2 18 15 15 14 30 -1
20 -7 -4 -22 -8 -33 -8 -30 0 -45 -13 -39 -33 5 -14 4 -14 -4 -3 -6 8 -7 21
-4 30 5 14 3 14 -11 2 -13 -10 -14 -17 -6 -33 6 -11 8 -22 5 -26 -3 -3 -6 1
-6 9 -1 10 -5 8 -15 -5 -8 -11 -15 -15 -15 -9 0 7 4 14 9 17 5 3 8 18 8 33 l0
28 -11 -27 c-5 -16 -14 -28 -19 -28 -4 0 -6 4 -3 9 4 5 3 16 0 25 -6 15 -8 15
-20 -1 -13 -17 -13 -17 -14 2 0 16 -2 17 -9 6 -5 -8 -7 -21 -4 -30 4 -14 3
-14 -6 -1 -26 36 -13 46 77 63 48 9 96 18 107 21 11 2 49 4 84 5 l65 1 -34
-25z m-120 -45 c0 -5 -4 -10 -10 -10 -5 0 -10 5 -10 10 0 6 5 10 10 10 6 0 10
-4 10 -10z m590 -46 c0 -8 -5 -12 -10 -9 -6 4 -8 11 -5 16 9 14 15 11 15 -7z
m-960 -23 c-6 -12 -8 -26 -5 -31 3 -6 1 -10 -4 -10 -15 0 -14 26 1 50 16 25
23 18 8 -9z m40 13 c0 -8 -5 -12 -10 -9 -6 4 -8 11 -5 16 9 14 15 11 15 -7z
m26 -19 c-9 -9 -16 -13 -16 -8 0 12 22 34 28 28 2 -2 -3 -11 -12 -20z m83 -3
c-5 -2 -6 -9 -2 -15 3 -7 2 -9 -2 -4 -5 4 -10 17 -12 28 -2 16 -1 18 11 7 8
-7 10 -15 5 -16z m61 18 c0 -5 -2 -10 -4 -10 -3 0 -8 5 -11 10 -3 6 -1 10 4
10 6 0 11 -4 11 -10z m937 -42 c-3 -7 -5 -2 -5 12 0 14 2 19 5 13 2 -7 2 -19
0 -25z m-1059 8 c-7 -8 -15 -12 -17 -11 -5 6 10 25 20 25 5 0 4 -6 -3 -14z
m-118 -28 c0 -6 7 -8 15 -4 8 3 15 1 15 -4 0 -6 -9 -10 -19 -10 -11 0 -22 -6
-25 -12 -3 -7 -3 -2 1 12 5 22 4 23 -10 12 -13 -11 -15 -10 -10 7 5 20 33 19
33 -1z m90 -4 c0 -8 -4 -14 -8 -14 -4 0 -8 9 -8 19 0 11 4 17 8 15 4 -3 8 -12
8 -20z m100 6 c0 -5 -2 -10 -4 -10 -3 0 -8 5 -11 10 -3 6 -1 10 4 10 6 0 11
-4 11 -10z m-270 -14 c0 -3 -4 -8 -10 -11 -5 -3 -10 -1 -10 4 0 6 5 11 10 11
6 0 10 -2 10 -4z m238 -21 c-3 -3 -9 2 -12 12 -6 14 -5 15 5 6 7 -7 10 -15 7
-18z m1287 15 c3 -5 1 -10 -4 -10 -6 0 -11 5 -11 10 0 6 2 10 4 10 3 0 8 -4
11 -10z m-1485 -20 c0 -5 -5 -10 -11 -10 -5 0 -7 5 -4 10 3 6 8 10 11 10 2 0
4 -4 4 -10z m-40 -10 c18 -12 2 -12 -25 0 -13 6 -15 9 -5 9 8 0 22 -4 30 -9z
m99 3 c0 -5 -4 -17 -9 -28 -8 -17 -8 -16 -7 8 1 15 5 27 9 27 4 0 8 -3 7 -7z
m-184 -23 c3 -5 1 -10 -4 -10 -6 0 -11 5 -11 10 0 6 2 10 4 10 3 0 8 -4 11
-10z m60 0 c3 -5 1 -10 -4 -10 -6 0 -11 5 -11 10 0 6 2 10 4 10 3 0 8 -4 11
-10z m-49 -47 c-8 -15 -15 -25 -16 -21 0 12 23 58 27 54 3 -2 -2 -17 -11 -33z
m131 15 c-3 -8 -6 -5 -6 6 -1 11 2 17 5 13 3 -3 4 -12 1 -19z m63 12 c0 -5 -2
-10 -4 -10 -3 0 -8 5 -11 10 -3 6 -1 10 4 10 6 0 11 -4 11 -10z m-210 -4 c0
-3 -4 -8 -10 -11 -5 -3 -10 -1 -10 4 0 6 5 11 10 11 6 0 10 -2 10 -4z m53 -11
c-3 -9 -8 -14 -10 -11 -3 3 -2 9 2 15 9 16 15 13 8 -4z m287 5 c0 -5 -2 -10
-4 -10 -3 0 -8 5 -11 10 -3 6 -1 10 4 10 6 0 11 -4 11 -10z m60 0 c0 -5 -2
-10 -4 -10 -3 0 -8 5 -11 10 -3 6 -1 10 4 10 6 0 11 -4 11 -10z m-320 -20 c0
-5 -5 -10 -11 -10 -5 0 -7 5 -4 10 3 6 8 10 11 10 2 0 4 -4 4 -10z m-130 -10
c0 -5 -2 -10 -4 -10 -3 0 -8 5 -11 10 -3 6 -1 10 4 10 6 0 11 -4 11 -10z m190
0 c0 -5 -5 -10 -11 -10 -5 0 -7 5 -4 10 3 6 8 10 11 10 2 0 4 -4 4 -10z m1660
-10 c0 -5 -2 -10 -4 -10 -3 0 -8 5 -11 10 -3 6 -1 10 4 10 6 0 11 -4 11 -10z
m-1822 -25 c-3 -3 -9 2 -12 12 -6 14 -5 15 5 6 7 -7 10 -15 7 -18z m1910 -20
c-3 -3 -9 2 -12 12 -6 14 -5 15 5 6 7 -7 10 -15 7 -18z m-1938 -5 c-6 -11 -13
-20 -16 -20 -2 0 0 9 6 20 6 11 13 20 16 20 2 0 0 -9 -6 -20z m270 -20 c0 -5
-4 -10 -10 -10 -5 0 -10 5 -10 10 0 6 5 10 10 10 6 0 10 -4 10 -10z m-135 -38
c-6 -7 -34 11 -29 19 3 5 11 3 19 -4 7 -6 12 -13 10 -15z m1912 21 c-4 -3 0
-15 10 -25 9 -10 13 -18 8 -18 -9 0 -34 31 -35 43 0 4 5 7 12 7 6 0 8 -3 5 -7z
m-2217 -13 c0 -5 -5 -10 -11 -10 -5 0 -7 5 -4 10 3 6 8 10 11 10 2 0 4 -4 4
-10z m45 0 c3 -5 1 -10 -4 -10 -6 0 -11 5 -11 10 0 6 2 10 4 10 3 0 8 -4 11
-10z m-65 -29 c3 -2 -2 -2 -11 2 -9 3 -21 1 -27 -5 -8 -8 -9 -5 -5 11 5 21 12
20 43 -8z m450 25 c0 -3 -4 -8 -10 -11 -5 -3 -10 -1 -10 4 0 6 5 11 10 11 6 0
10 -2 10 -4z m-417 -21 c-3 -9 -8 -14 -10 -11 -3 3 -2 9 2 15 9 16 15 13 8 -4z
m107 1 c0 -3 -4 -8 -10 -11 -5 -3 -10 -1 -10 4 0 6 5 11 10 11 6 0 10 -2 10
-4z m21 -19 c-10 -9 -11 -8 -5 6 3 10 9 15 12 12 3 -3 0 -11 -7 -18z m269 3
c0 -5 -4 -10 -10 -10 -5 0 -10 5 -10 10 0 6 5 10 10 10 6 0 10 -4 10 -10z
m-510 -15 c0 -8 -4 -15 -10 -15 -5 0 -7 7 -4 15 4 8 8 15 10 15 2 0 4 -7 4
-15z m2347 -7 c-3 -8 -6 -5 -6 6 -1 11 2 17 5 13 3 -3 4 -12 1 -19z m-2147 2
c0 -5 -4 -10 -10 -10 -5 0 -10 5 -10 10 0 6 5 10 10 10 6 0 10 -4 10 -10z
m295 -19 c3 -5 1 -12 -5 -16 -5 -3 -10 1 -10 9 0 18 6 21 15 7z m-85 -11 c0
-5 -2 -10 -4 -10 -3 0 -8 5 -11 10 -3 6 -1 10 4 10 6 0 11 -4 11 -10z m2000 0
c0 -5 -4 -10 -10 -10 -5 0 -10 5 -10 10 0 6 5 10 10 10 6 0 10 -4 10 -10z
m-2360 -4 c0 -3 -4 -8 -10 -11 -5 -3 -10 -1 -10 4 0 6 5 11 10 11 6 0 10 -2
10 -4z m-70 -10 c0 -2 -7 -9 -15 -16 -13 -11 -14 -10 -9 4 5 14 24 23 24 12z
m40 -16 c8 -5 11 -10 5 -10 -5 0 -17 5 -25 10 -8 5 -10 10 -5 10 6 0 17 -5 25
-10z m460 0 c0 -5 -5 -10 -11 -10 -5 0 -7 5 -4 10 3 6 8 10 11 10 2 0 4 -4 4
-10z m-410 -4 c0 -2 -7 -7 -16 -10 -8 -3 -12 -2 -9 4 6 10 25 14 25 6z m320
-6 c0 -5 -5 -10 -11 -10 -5 0 -7 5 -4 10 3 6 8 10 11 10 2 0 4 -4 4 -10z
m-200 -10 c0 -5 -2 -10 -4 -10 -3 0 -8 5 -11 10 -3 6 -1 10 4 10 6 0 11 -4 11
-10z m50 -4 c0 -3 -4 -8 -10 -11 -5 -3 -10 -1 -10 4 0 6 5 11 10 11 6 0 10 -2
10 -4z m200 -16 c0 -5 -2 -10 -4 -10 -3 0 -8 5 -11 10 -3 6 -1 10 4 10 6 0 11
-4 11 -10z m70 6 c0 -3 -4 -8 -10 -11 -5 -3 -10 -1 -10 4 0 6 5 11 10 11 6 0
10 -2 10 -4z m-580 -16 c0 -5 -5 -10 -11 -10 -5 0 -7 5 -4 10 3 6 8 10 11 10
2 0 4 -4 4 -10z m420 -15 c-7 -9 -15 -13 -17 -11 -6 6 20 36 26 30 2 -2 -2
-10 -9 -19z m-390 11 c0 -3 -4 -8 -10 -11 -5 -3 -10 -1 -10 4 0 6 5 11 10 11
6 0 10 -2 10 -4z m200 0 c0 -3 -4 -8 -10 -11 -5 -3 -10 -1 -10 4 0 6 5 11 10
11 6 0 10 -2 10 -4z m40 0 c0 -3 -4 -8 -10 -11 -5 -3 -10 -1 -10 4 0 6 5 11
10 11 6 0 10 -2 10 -4z m-295 -26 c3 -5 1 -10 -4 -10 -6 0 -11 5 -11 10 0 6 2
10 4 10 3 0 8 -4 11 -10z m395 6 c0 -3 -4 -8 -10 -11 -5 -3 -10 -1 -10 4 0 6
5 11 10 11 6 0 10 -2 10 -4z m-249 -29 c-10 -9 -11 -8 -5 6 3 10 9 15 12 12 3
-3 0 -11 -7 -18z m189 13 c0 -5 -2 -10 -4 -10 -3 0 -8 5 -11 10 -3 6 -1 10 4
10 6 0 11 -4 11 -10z m190 0 c0 -5 -5 -10 -11 -10 -5 0 -7 5 -4 10 3 6 8 10
11 10 2 0 4 -4 4 -10z m-480 -30 c0 -5 -2 -10 -4 -10 -3 0 -8 5 -11 10 -3 6
-1 10 4 10 6 0 11 -4 11 -10z m315 0 c3 -5 1 -10 -4 -10 -6 0 -11 5 -11 10 0
6 2 10 4 10 3 0 8 -4 11 -10z m-425 -20 c0 -5 -5 -10 -11 -10 -5 0 -7 5 -4 10
3 6 8 10 11 10 2 0 4 -4 4 -10z m560 0 c0 -5 -5 -10 -11 -10 -5 0 -7 5 -4 10
3 6 8 10 11 10 2 0 4 -4 4 -10z m2208 -15 c-3 -3 -9 2 -12 12 -6 14 -5 15 5 6
7 -7 10 -15 7 -18z m-2837 6 c-7 -5 -11 -14 -7 -20 5 -7 1 -9 -9 -5 -11 5 -14
2 -9 -10 3 -9 10 -16 15 -16 5 0 9 -4 9 -10 0 -19 -17 -10 -29 16 -10 22 -9
28 6 40 10 7 23 13 28 14 6 0 4 -4 -4 -9z m139 5 c0 -3 -4 -8 -10 -11 -5 -3
-10 -1 -10 4 0 6 5 11 10 11 6 0 10 -2 10 -4z m70 0 c0 -3 -4 -8 -10 -11 -5
-3 -10 -1 -10 4 0 6 5 11 10 11 6 0 10 -2 10 -4z m370 -6 c0 -5 -5 -10 -11
-10 -5 0 -7 5 -4 10 3 6 8 10 11 10 2 0 4 -4 4 -10z m-490 -30 c0 -5 -7 -7
-15 -4 -8 4 -12 10 -9 15 6 11 24 2 24 -11z m140 10 c0 -5 -4 -10 -10 -10 -5
0 -10 5 -10 10 0 6 5 10 10 10 6 0 10 -4 10 -10z m140 0 c0 -5 -4 -10 -10 -10
-5 0 -10 5 -10 10 0 6 5 10 10 10 6 0 10 -4 10 -10z m110 0 c0 -5 -4 -10 -10
-10 -5 0 -10 5 -10 10 0 6 5 10 10 10 6 0 10 -4 10 -10z m-290 -10 c0 -5 -2
-10 -4 -10 -3 0 -8 5 -11 10 -3 6 -1 10 4 10 6 0 11 -4 11 -10z m370 0 c0 -5
-4 -10 -10 -10 -5 0 -10 5 -10 10 0 6 5 10 10 10 6 0 10 -4 10 -10z m-600 -20
c0 -5 -5 -10 -11 -10 -5 0 -7 5 -4 10 3 6 8 10 11 10 2 0 4 -4 4 -10z m73 -10
c3 -11 1 -18 -4 -14 -5 3 -9 12 -9 20 0 20 7 17 13 -6z m37 10 c0 -5 -5 -10
-11 -10 -5 0 -7 5 -4 10 3 6 8 10 11 10 2 0 4 -4 4 -10z m330 0 c0 -5 -4 -10
-10 -10 -5 0 -10 5 -10 10 0 6 5 10 10 10 6 0 10 -4 10 -10z m210 0 c0 -5 -4
-10 -10 -10 -5 0 -10 5 -10 10 0 6 5 10 10 10 6 0 10 -4 10 -10z m-1470 -26
c0 -2 -9 0 -20 6 -11 6 -20 13 -20 16 0 2 9 0 20 -6 11 -6 20 -13 20 -16z
m970 16 c0 -5 -4 -10 -10 -10 -5 0 -10 5 -10 10 0 6 5 10 10 10 6 0 10 -4 10
-10z m100 0 c0 -5 -4 -10 -10 -10 -5 0 -10 5 -10 10 0 6 5 10 10 10 6 0 10 -4
10 -10z m130 0 c0 -5 -4 -10 -10 -10 -5 0 -10 5 -10 10 0 6 5 10 10 10 6 0 10
-4 10 -10z m180 0 c0 -5 -4 -10 -10 -10 -5 0 -10 5 -10 10 0 6 5 10 10 10 6 0
10 -4 10 -10z m-550 -14 c0 -3 -4 -8 -10 -11 -5 -3 -10 -1 -10 4 0 6 5 11 10
11 6 0 10 -2 10 -4z m480 0 c0 -11 -19 -15 -25 -6 -3 5 1 10 9 10 9 0 16 -2
16 -4z m-469 -33 c-12 -20 -14 -14 -5 12 4 9 9 14 11 11 3 -2 0 -13 -6 -23z
m39 7 c0 -5 -2 -10 -4 -10 -3 0 -8 5 -11 10 -3 6 -1 10 4 10 6 0 11 -4 11 -10z
m110 0 c0 -5 -2 -10 -4 -10 -3 0 -8 5 -11 10 -3 6 -1 10 4 10 6 0 11 -4 11
-10z m360 0 c0 -5 -7 -10 -16 -10 -8 0 -12 5 -9 10 3 6 10 10 16 10 5 0 9 -4
9 -10z m85 0 c-3 -5 -10 -10 -16 -10 -5 0 -9 5 -9 10 0 6 7 10 16 10 8 0 12
-4 9 -10z m-355 -10 c0 -5 -4 -10 -10 -10 -5 0 -10 5 -10 10 0 6 5 10 10 10 6
0 10 -4 10 -10z m186 -17 c-10 -10 -19 5 -10 18 6 11 8 11 12 0 2 -7 1 -15 -2
-18z m-576 7 c0 -5 -4 -10 -10 -10 -5 0 -10 5 -10 10 0 6 5 10 10 10 6 0 10
-4 10 -10z m330 -4 c0 -3 -4 -8 -10 -11 -5 -3 -10 -1 -10 4 0 6 5 11 10 11 6
0 10 -2 10 -4z m357 -2 c-3 -3 -12 -4 -19 -1 -8 3 -5 6 6 6 11 1 17 -2 13 -5z
m-227 -14 c0 -5 -5 -10 -11 -10 -5 0 -7 5 -4 10 3 6 8 10 11 10 2 0 4 -4 4
-10z m2720 -12 c0 -6 -6 -5 -15 2 -8 7 -15 14 -15 16 0 2 7 1 15 -2 8 -4 15
-11 15 -16z m-2650 2 c0 -5 -7 -10 -16 -10 -8 0 -12 5 -9 10 3 6 10 10 16 10
5 0 9 -4 9 -10z m90 -6 c0 -8 -4 -12 -10 -9 -5 3 -10 10 -10 16 0 5 5 9 10 9
6 0 10 -7 10 -16z m95 -4 c-3 -5 -10 -10 -16 -10 -5 0 -9 5 -9 10 0 6 7 10 16
10 8 0 12 -4 9 -10z m-332 -15 c-3 -9 -8 -14 -10 -11 -3 3 -2 9 2 15 9 16 15
13 8 -4z m-363 -5 c0 -5 -5 -10 -11 -10 -5 0 -7 5 -4 10 3 6 8 10 11 10 2 0 4
-4 4 -10z m3186 -17 c-7 -7 -26 7 -26 19 0 6 6 6 15 -2 9 -7 13 -15 11 -17z
m-3046 7 c0 -5 -4 -10 -10 -10 -5 0 -10 5 -10 10 0 6 5 10 10 10 6 0 10 -4 10
-10z m280 6 c0 -3 -4 -8 -10 -11 -5 -3 -10 -1 -10 4 0 6 5 11 10 11 6 0 10 -2
10 -4z m70 -6 c0 -5 -2 -10 -4 -10 -3 0 -8 5 -11 10 -3 6 -1 10 4 10 6 0 11
-4 11 -10z m56 -17 c-10 -10 -19 5 -10 18 6 11 8 11 12 0 2 -7 1 -15 -2 -18z
m-666 -4 c0 -6 -4 -7 -10 -4 -5 3 -10 11 -10 16 0 6 5 7 10 4 6 -3 10 -11 10
-16z m580 12 c0 -6 -4 -13 -10 -16 -5 -3 -10 1 -10 9 0 9 5 16 10 16 6 0 10
-4 10 -9z m-440 -11 c0 -5 -4 -10 -10 -10 -5 0 -10 5 -10 10 0 6 5 10 10 10 6
0 10 -4 10 -10z m638 -1 c-2 -6 -8 -10 -13 -10 -5 0 -11 4 -13 10 -2 6 4 11
13 11 9 0 15 -5 13 -11z m-598 -9 c0 -5 -2 -10 -4 -10 -3 0 -8 5 -11 10 -3 6
-1 10 4 10 6 0 11 -4 11 -10z m60 6 c0 -11 -19 -15 -25 -6 -3 5 1 10 9 10 9 0
16 -2 16 -4z m40 -6 c0 -5 -4 -10 -10 -10 -5 0 -10 5 -10 10 0 6 5 10 10 10 6
0 10 -4 10 -10z m3050 0 c0 -5 -2 -10 -4 -10 -3 0 -8 5 -11 10 -3 6 -1 10 4
10 6 0 11 -4 11 -10z m-2910 -4 c0 -3 -4 -8 -10 -11 -5 -3 -10 -1 -10 4 0 6 5
11 10 11 6 0 10 -2 10 -4z m2935 -6 c3 -5 1 -10 -4 -10 -6 0 -11 5 -11 10 0 6
2 10 4 10 3 0 8 -4 11 -10z m-3235 -10 c0 -5 -5 -10 -11 -10 -5 0 -7 5 -4 10
3 6 8 10 11 10 2 0 4 -4 4 -10z m35 0 c3 -5 1 -10 -4 -10 -6 0 -11 5 -11 10 0
6 2 10 4 10 3 0 8 -4 11 -10z m465 0 c0 -5 -7 -10 -16 -10 -8 0 -12 5 -9 10 3
6 10 10 16 10 5 0 9 -4 9 -10z m80 4 c0 -3 -7 -12 -15 -21 -20 -19 -32 -10
-14 11 14 15 29 21 29 10z m-490 -8 c0 -3 -4 -8 -10 -11 -5 -3 -10 -1 -10 4 0
6 5 11 10 11 6 0 10 -2 10 -4z m150 -6 c0 -5 -5 -10 -11 -10 -5 0 -7 5 -4 10
3 6 8 10 11 10 2 0 4 -4 4 -10z m170 0 c0 -5 -5 -10 -11 -10 -5 0 -7 5 -4 10
3 6 8 10 11 10 2 0 4 -4 4 -10z m2860 -50 c0 -8 -7 -2 -15 14 -19 36 -19 45 0
20 8 -10 14 -26 15 -34z m-3250 30 c0 -5 -4 -10 -10 -10 -5 0 -10 5 -10 10 0
6 5 10 10 10 6 0 10 -4 10 -10z m260 0 c0 -5 -5 -10 -11 -10 -5 0 -7 5 -4 10
3 6 8 10 11 10 2 0 4 -4 4 -10z m170 -4 c0 -3 -4 -8 -10 -11 -5 -3 -10 -1 -10
4 0 6 5 11 10 11 6 0 10 -2 10 -4z m180 -5 c0 -14 -18 -23 -30 -16 -6 4 -8 11
-5 16 8 12 35 12 35 0z m-420 -11 c0 -5 -2 -10 -4 -10 -3 0 -8 5 -11 10 -3 6
-1 10 4 10 6 0 11 -4 11 -10z m110 6 c0 -3 -4 -8 -10 -11 -5 -3 -10 -1 -10 4
0 6 5 11 10 11 6 0 10 -2 10 -4z m-323 -12 c-3 -3 -12 -4 -19 -1 -8 3 -5 6 6
6 11 1 17 -2 13 -5z m518 -3 c3 -5 1 -13 -5 -16 -15 -9 -43 3 -35 15 8 13 32
13 40 1z m-445 -21 c0 -5 -5 -10 -11 -10 -5 0 -7 5 -4 10 3 6 8 10 11 10 2 0
4 -4 4 -10z m50 0 c0 -5 -5 -10 -11 -10 -5 0 -7 5 -4 10 3 6 8 10 11 10 2 0 4
-4 4 -10z m74 -5 c3 -8 1 -15 -4 -15 -6 0 -10 7 -10 15 0 8 2 15 4 15 2 0 6
-7 10 -15z m56 5 c0 -5 -4 -10 -10 -10 -5 0 -10 5 -10 10 0 6 5 10 10 10 6 0
10 -4 10 -10z m330 -9 c0 -5 -9 -11 -20 -14 -20 -5 -26 3 -13 16 9 10 33 8 33
-2z m2720 -1 c0 -5 -4 -10 -10 -10 -5 0 -10 5 -10 10 0 6 5 10 10 10 6 0 10
-4 10 -10z m-3150 -10 c0 -5 -4 -10 -10 -10 -5 0 -10 5 -10 10 0 6 5 10 10 10
6 0 10 -4 10 -10z m-100 -10 c0 -5 -2 -10 -4 -10 -3 0 -8 5 -11 10 -3 6 -1 10
4 10 6 0 11 -4 11 -10z m250 0 c0 -5 -5 -10 -11 -10 -5 0 -7 5 -4 10 3 6 8 10
11 10 2 0 4 -4 4 -10z m2970 0 c0 -5 -2 -10 -4 -10 -3 0 -8 5 -11 10 -3 6 -1
10 4 10 6 0 11 -4 11 -10z m-3294 -27 c-6 -6 -36 9 -36 18 0 5 9 4 20 -3 10
-7 18 -14 16 -15z m124 23 c0 -3 -4 -8 -10 -11 -5 -3 -10 -1 -10 4 0 6 5 11
10 11 6 0 10 -2 10 -4z m240 -4 c0 -13 -12 -22 -22 -16 -10 6 -1 24 13 24 5 0
9 -4 9 -8z m-486 -18 c9 -3 16 -14 16 -23 -1 -14 -2 -14 -14 2 -10 13 -15 15
-19 5 -2 -7 -8 -10 -12 -6 -4 4 -4 11 0 17 7 13 8 13 29 5z m266 -4 c0 -5 -5
-10 -11 -10 -5 0 -7 5 -4 10 3 6 8 10 11 10 2 0 4 -4 4 -10z m278 -2 c-6 -18
-28 -21 -28 -4 0 9 7 16 16 16 9 0 14 -5 12 -12z m87 2 c-3 -5 -10 -10 -16
-10 -5 0 -9 5 -9 10 0 6 7 10 16 10 8 0 12 -4 9 -10z m-545 -4 c0 -3 -4 -8
-10 -11 -5 -3 -10 -1 -10 4 0 6 5 11 10 11 6 0 10 -2 10 -4z m130 -6 c0 -5 -5
-10 -11 -10 -5 0 -7 5 -4 10 3 6 8 10 11 10 2 0 4 -4 4 -10z m-90 -32 c0 -5
-7 -3 -15 6 -8 8 -15 18 -15 22 0 3 7 1 15 -6 8 -7 15 -17 15 -22z m305 22
c-3 -5 -13 -10 -21 -10 -8 0 -12 5 -9 10 3 6 13 10 21 10 8 0 12 -4 9 -10z
m263 -2 c-6 -18 -28 -21 -28 -4 0 9 7 16 16 16 9 0 14 -5 12 -12z m-652 -17
c0 -11 -6 -17 -13 -14 -6 3 -9 11 -6 19 7 20 19 17 19 -5z m254 9 c0 -5 -5
-10 -11 -10 -5 0 -7 5 -4 10 3 6 8 10 11 10 2 0 4 -4 4 -10z m3180 0 c0 -5 -2
-10 -4 -10 -3 0 -8 5 -11 10 -3 6 -1 10 4 10 6 0 11 -4 11 -10z m-3230 -10 c0
-5 -7 -10 -16 -10 -8 0 -12 5 -9 10 3 6 10 10 16 10 5 0 9 -4 9 -10z m238 -1
c-2 -6 -8 -10 -13 -10 -5 0 -11 4 -13 10 -2 6 4 11 13 11 9 0 15 -5 13 -11z
m-401 -21 c-3 -8 -6 -5 -6 6 -1 11 2 17 5 13 3 -3 4 -12 1 -19z m-136 -11
c-13 -13 -26 -3 -16 12 3 6 11 8 17 5 6 -4 6 -10 -1 -17z m589 13 c0 -5 -4
-10 -10 -10 -5 0 -10 5 -10 10 0 6 5 10 10 10 6 0 10 -4 10 -10z m-502 -24 c2
-10 -1 -23 -6 -28 -15 -15 -44 16 -36 37 8 21 38 15 42 -9z m177 14 c3 -5 1
-10 -4 -10 -6 0 -11 5 -11 10 0 6 2 10 4 10 3 0 8 -4 11 -10z m185 0 c0 -5 -7
-10 -16 -10 -8 0 -12 5 -9 10 3 6 10 10 16 10 5 0 9 -4 9 -10z m180 -5 c0 -9
-6 -12 -15 -9 -8 4 -12 10 -9 15 8 14 24 10 24 -6z m-600 -5 c0 -5 -5 -10 -11
-10 -5 0 -7 5 -4 10 3 6 8 10 11 10 2 0 4 -4 4 -10z m295 0 c-3 -5 -10 -10
-16 -10 -5 0 -9 5 -9 10 0 6 7 10 16 10 8 0 12 -4 9 -10z m175 -15 c0 -8 -7
-15 -16 -15 -14 0 -14 3 -4 15 7 8 14 15 16 15 2 0 4 -7 4 -15z m220 0 c0 -8
-7 -15 -15 -15 -8 0 -15 7 -15 15 0 8 7 15 15 15 8 0 15 -7 15 -15z m-730 -5
c0 -5 -4 -10 -10 -10 -5 0 -10 5 -10 10 0 6 5 10 10 10 6 0 10 -4 10 -10z
m210 0 c0 -5 -2 -10 -4 -10 -3 0 -8 5 -11 10 -3 6 -1 10 4 10 6 0 11 -4 11
-10z m170 0 c0 -5 -4 -10 -10 -10 -5 0 -10 5 -10 10 0 6 5 10 10 10 6 0 10 -4
10 -10z m-356 -15 c-4 -8 -11 -15 -16 -15 -6 0 -5 6 2 15 7 8 14 15 16 15 2 0
1 -7 -2 -15z m221 -3 c-3 -3 -11 0 -18 7 -9 10 -8 11 6 5 10 -3 15 -9 12 -12z
m65 -2 c0 -5 -7 -10 -16 -10 -8 0 -12 5 -9 10 3 6 10 10 16 10 5 0 9 -4 9 -10z
m120 0 c0 -5 -4 -10 -10 -10 -5 0 -10 5 -10 10 0 6 5 10 10 10 6 0 10 -4 10
-10z m138 -2 c-6 -18 -28 -21 -28 -4 0 9 7 16 16 16 9 0 14 -5 12 -12z m-383
-8 c3 -5 1 -10 -4 -10 -6 0 -11 5 -11 10 0 6 2 10 4 10 3 0 8 -4 11 -10z
m-205 -8 c0 -13 -12 -22 -22 -16 -10 6 -1 24 13 24 5 0 9 -4 9 -8z m75 -3 c11
-16 1 -19 -13 -3 -7 8 -8 14 -3 14 5 0 13 -5 16 -11z m295 1 c0 -5 -4 -10 -10
-10 -5 0 -10 5 -10 10 0 6 5 10 10 10 6 0 10 -4 10 -10z m271 -13 c-13 -13
-26 -3 -16 12 3 6 11 8 17 5 6 -4 6 -10 -1 -17z m-691 -19 c0 -11 -7 -10 -31
2 -28 16 -23 32 6 18 14 -6 25 -15 25 -20z m93 19 c4 3 7 1 7 -5 0 -6 -4 -14
-10 -17 -5 -3 -10 -2 -10 4 0 6 -7 8 -15 5 -8 -4 -15 -2 -15 3 0 17 13 23 25
13 7 -5 15 -7 18 -3z m142 3 c3 -6 -1 -7 -9 -4 -18 7 -21 14 -7 14 6 0 13 -4
16 -10z m105 -4 c0 -3 -4 -8 -10 -11 -5 -3 -10 -1 -10 4 0 6 5 11 10 11 6 0
10 -2 10 -4z m135 -6 c-3 -5 -11 -10 -16 -10 -6 0 -7 5 -4 10 3 6 11 10 16 10
6 0 7 -4 4 -10z m285 -16 c0 -16 -16 -19 -25 -4 -8 13 4 32 16 25 5 -4 9 -13
9 -21z m-400 6 c0 -5 -5 -10 -11 -10 -5 0 -7 5 -4 10 3 6 8 10 11 10 2 0 4 -4
4 -10z m180 0 c0 -5 -7 -10 -15 -10 -8 0 -15 5 -15 10 0 6 7 10 15 10 8 0 15
-4 15 -10z m-518 -13 c-14 -17 -3 -31 28 -35 32 -5 36 -10 22 -24 -9 -9 -12
-9 -12 1 0 7 -4 9 -10 6 -5 -3 -10 0 -10 7 0 9 -3 9 -10 -2 -7 -11 -10 -11
-10 -2 0 7 -4 11 -9 8 -5 -4 -11 0 -14 6 -5 15 14 48 27 48 4 0 4 -6 -2 -13z
m98 3 c0 -5 -5 -10 -11 -10 -5 0 -7 5 -4 10 3 6 8 10 11 10 2 0 4 -4 4 -10z
m155 0 c-3 -5 -10 -10 -16 -10 -5 0 -9 5 -9 10 0 6 7 10 16 10 8 0 12 -4 9
-10z m325 -5 c0 -8 -7 -15 -15 -15 -16 0 -20 12 -8 23 11 12 23 8 23 -8z
m-463 -17 c-3 -8 -6 -5 -6 6 -1 11 2 17 5 13 3 -3 4 -12 1 -19z m3558 2 c3 -5
1 -10 -4 -10 -6 0 -11 5 -11 10 0 6 2 10 4 10 3 0 8 -4 11 -10z m-3505 -10 c0
-5 -4 -10 -10 -10 -5 0 -10 5 -10 10 0 6 5 10 10 10 6 0 10 -4 10 -10z m255
-9 c-3 -6 -11 -11 -17 -11 -6 0 -6 6 2 15 14 17 26 13 15 -4z m225 10 c0 -14
-18 -23 -30 -16 -6 4 -8 11 -5 16 8 12 35 12 35 0z m-458 -23 c-7 -7 -12 -8
-12 -2 0 14 12 26 19 19 2 -3 -1 -11 -7 -17z m138 18 c0 -3 -4 -8 -10 -11 -5
-3 -10 -1 -10 4 0 6 5 11 10 11 6 0 10 -2 10 -4z m151 -29 c-13 -13 -26 -3
-16 12 3 6 11 8 17 5 6 -4 6 -10 -1 -17z m-410 -10 c-10 -9 -11 -8 -5 6 3 10
9 15 12 12 3 -3 0 -11 -7 -18z m164 13 c-3 -5 -10 -10 -16 -10 -5 0 -9 5 -9
10 0 6 7 10 16 10 8 0 12 -4 9 -10z m477 -5 c0 -5 -5 -11 -11 -13 -6 -2 -11 4
-11 13 0 9 5 15 11 13 6 -2 11 -8 11 -13z m-442 -10 c0 -8 -4 -15 -10 -15 -5
0 -10 7 -10 15 0 8 5 15 10 15 6 0 10 -7 10 -15z m280 0 c0 -8 -6 -15 -14 -15
-17 0 -28 14 -19 24 12 12 33 6 33 -9z m-580 -5 c-11 -7 -8 -11 15 -20 17 -7
38 -13 49 -16 26 -5 32 -12 18 -26 -9 -9 -12 -9 -12 1 0 7 -4 9 -10 6 -5 -3
-10 -1 -10 5 0 6 -4 8 -10 5 -5 -3 -10 0 -10 7 0 10 -3 9 -10 -2 -8 -12 -10
-12 -16 3 -3 9 -10 14 -15 11 -10 -6 -12 19 -2 29 3 4 11 7 17 7 6 0 4 -4 -4
-10z m135 0 c-3 -5 -11 -10 -16 -10 -6 0 -7 5 -4 10 3 6 11 10 16 10 6 0 7 -4
4 -10z m25 -15 c-7 -9 -15 -13 -17 -11 -7 7 7 26 19 26 6 0 6 -6 -2 -15z
m3590 5 c0 -5 -4 -10 -10 -10 -5 0 -10 5 -10 10 0 6 5 10 10 10 6 0 10 -4 10
-10z m-3568 -22 c-7 -7 -12 -8 -12 -2 0 14 12 26 19 19 2 -3 -1 -11 -7 -17z
m468 6 c0 -17 -22 -14 -28 4 -2 7 3 12 12 12 9 0 16 -7 16 -16z m-443 -16 c-3
-8 -6 -5 -6 6 -1 11 2 17 5 13 3 -3 4 -12 1 -19z m223 12 c0 -5 -7 -10 -15
-10 -8 0 -15 5 -15 10 0 6 7 10 15 10 8 0 15 -4 15 -10z m-193 -22 c-3 -8 -6
-5 -6 6 -1 11 2 17 5 13 3 -3 4 -12 1 -19z m253 1 c0 -5 -7 -9 -15 -9 -15 0
-20 12 -9 23 8 8 24 -1 24 -14z m225 -7 c0 -18 -20 -15 -23 4 -3 10 1 15 10
12 7 -3 13 -10 13 -16z m3061 -9 c-10 -10 -19 5 -10 18 6 11 8 11 12 0 2 -7 1
-15 -2 -18z m-3509 -5 c-3 -8 -6 -5 -6 6 -1 11 2 17 5 13 3 -3 4 -12 1 -19z
m283 7 c0 -8 -7 -15 -15 -15 -16 0 -20 12 -8 23 11 12 23 8 23 -8z m-413 -17
c-3 -8 -6 -5 -6 6 -1 11 2 17 5 13 3 -3 4 -12 1 -19z m167 6 c3 -8 2 -12 -4
-9 -6 3 -10 10 -10 16 0 14 7 11 14 -7z m-424 -7 c0 3 8 -4 19 -15 10 -12 21
-18 26 -14 4 4 5 -2 3 -13 -4 -21 -19 -23 -78 -12 -16 4 -30 3 -30 -2 0 -9 48
-26 63 -23 4 1 7 -4 7 -10 0 -9 4 -8 10 2 8 13 10 13 10 -1 0 -10 7 -16 17
-15 10 0 19 -7 21 -16 2 -10 -1 -18 -7 -18 -6 0 -8 8 -5 18 5 14 3 14 -10 -2
-12 -15 -16 -16 -17 -5 0 9 -2 10 -5 2 -4 -8 -15 -9 -37 -2 -22 6 -33 6 -36
-2 -2 -8 -6 -7 -12 2 -4 7 -11 10 -16 6 -10 -11 17 -27 34 -20 7 3 13 -1 13
-8 0 -11 3 -11 10 1 8 12 10 12 10 1 0 -8 3 -11 6 -8 4 4 15 -3 25 -15 11 -11
19 -16 19 -9 0 9 5 9 20 1 11 -6 20 -8 20 -4 0 4 2 5 5 2 9 -9 -6 -38 -16 -32
-5 3 -6 11 -2 17 5 9 3 9 -8 0 -16 -13 -28 -12 -88 6 -19 6 -37 8 -40 5 -9 -9
23 -24 39 -18 8 3 11 2 8 -2 -10 -9 15 -32 29 -27 18 7 16 -12 -2 -27 -11 -9
-15 -9 -15 -1 0 7 -4 9 -10 6 -5 -3 -10 -1 -10 5 0 6 -4 8 -10 5 -5 -3 -10 -1
-10 5 0 6 -4 8 -10 5 -5 -3 -10 -2 -10 2 0 5 -9 9 -20 10 -11 1 -20 -2 -20 -8
0 -5 5 -9 11 -9 23 0 108 -43 103 -52 -4 -6 -10 -5 -15 3 -5 8 -9 11 -9 7 0
-4 -20 -1 -45 6 -48 15 -54 13 -30 -10 12 -12 15 -12 15 -2 0 10 2 10 9 -1 5
-8 14 -10 22 -6 8 6 11 4 7 -6 -4 -10 3 -14 26 -15 44 -1 91 -10 111 -22 10
-5 27 -7 38 -4 13 3 18 1 13 -6 -3 -6 -16 -8 -29 -6 -12 3 -33 6 -47 7 -14 1
-31 6 -37 10 -8 5 -13 3 -14 -5 0 -10 -2 -10 -6 -1 -3 9 -10 10 -24 3 -11 -7
-19 -7 -19 -1 0 5 -8 8 -17 6 -10 -1 -26 2 -37 7 -14 7 -16 7 -11 -2 5 -9 1
-10 -14 -5 -13 4 -21 2 -21 -5 0 -6 5 -8 10 -5 6 3 10 -2 10 -11 0 -14 3 -15
12 -6 8 8 19 8 42 -2 17 -7 37 -11 45 -8 8 2 11 0 8 -5 -3 -5 7 -8 24 -7 29 2
39 -9 19 -21 -5 -3 -10 -1 -10 5 0 7 -6 8 -19 1 -10 -6 -21 -8 -24 -5 -3 3
-19 7 -36 8 -24 2 -31 -2 -31 -17 0 -10 4 -16 9 -13 12 8 41 -4 41 -16 0 -6
-6 -8 -14 -5 -7 3 -19 0 -25 -6 -8 -8 -11 -8 -11 1 0 10 -5 10 -21 1 -16 -8
-20 -8 -14 1 5 8 1 11 -10 8 -22 -4 -31 -24 -13 -26 17 -1 63 -8 111 -17 46
-9 44 -30 -4 -30 -19 0 -40 -4 -46 -8 -9 -6 -11 -3 -6 10 6 16 5 16 -10 4 -11
-9 -17 -10 -17 -2 0 15 -37 14 -43 -1 -10 -30 -17 4 -11 56 6 49 9 56 25 51
11 -4 19 -2 19 4 0 6 -7 11 -15 11 -8 0 -15 8 -15 18 0 34 69 301 95 369 3 9
11 10 30 3 14 -5 25 -7 25 -3z m464 -2 c-7 -16 -24 -21 -24 -6 0 8 7 13 27 20
1 1 0 -6 -3 -14z m278 0 c0 -5 -5 -11 -11 -13 -6 -2 -11 4 -11 13 0 9 5 15 11
13 6 -2 11 -8 11 -13z m-452 -5 c0 -5 -5 -10 -11 -10 -5 0 -7 5 -4 10 3 6 8
10 11 10 2 0 4 -4 4 -10z m220 -10 c0 -5 -4 -10 -10 -10 -5 0 -10 5 -10 10 0
6 5 10 10 10 6 0 10 -4 10 -10z m3400 -6 c0 -8 -5 -12 -10 -9 -6 4 -8 11 -5
16 9 14 15 11 15 -7z m-3720 -4 c0 -5 -4 -10 -10 -10 -5 0 -10 5 -10 10 0 6 5
10 10 10 6 0 10 -4 10 -10z m390 -5 c0 -8 -7 -15 -15 -15 -16 0 -20 12 -8 23
11 12 23 8 23 -8z m-504 -21 c-3 -8 0 -13 6 -11 6 1 13 -4 15 -11 4 -11 1 -12
-15 -3 -10 6 -23 7 -27 3 -5 -4 -5 1 -2 11 4 10 7 23 7 28 0 6 5 7 11 4 6 -4
8 -13 5 -21z m144 10 c0 -8 -4 -12 -10 -9 -5 3 -10 10 -10 16 0 5 5 9 10 9 6
0 10 -7 10 -16z m120 6 c0 -5 -4 -10 -10 -10 -5 0 -10 5 -10 10 0 6 5 10 10
10 6 0 10 -4 10 -10z m-219 -14 c12 7 11 -7 -1 -26 -8 -13 -10 -12 -10 3 0 9
-5 17 -11 17 -5 0 -7 5 -3 12 6 9 9 9 12 0 2 -7 8 -10 13 -6z m539 4 c0 -5 -7
-10 -15 -10 -8 0 -15 5 -15 10 0 6 7 10 15 10 8 0 15 -4 15 -10z m150 -5 c0
-8 -7 -15 -15 -15 -16 0 -20 12 -8 23 11 12 23 8 23 -8z m-420 -5 c0 -5 -5
-10 -11 -10 -5 0 -7 5 -4 10 3 6 8 10 11 10 2 0 4 -4 4 -10z m330 -11 c0 -5
-7 -9 -15 -9 -9 0 -12 6 -9 15 6 15 24 11 24 -6z m-573 -11 c-3 -8 -6 -5 -6 6
-1 11 2 17 5 13 3 -3 4 -12 1 -19z m24 -11 c-8 -8 -11 -7 -11 4 0 20 13 34 18
19 3 -7 -1 -17 -7 -23z m259 23 c0 -5 -5 -10 -11 -10 -5 0 -7 5 -4 10 3 6 8
10 11 10 2 0 4 -4 4 -10z m51 -23 c-13 -13 -26 -3 -16 12 3 6 11 8 17 5 6 -4
6 -10 -1 -17z m-271 3 c0 -5 -4 -10 -10 -10 -5 0 -10 5 -10 10 0 6 5 10 10 10
6 0 10 -4 10 -10z m40 -10 c0 -5 -4 -10 -10 -10 -5 0 -10 5 -10 10 0 6 5 10
10 10 6 0 10 -4 10 -10z m30 0 c0 -5 -5 -10 -11 -10 -5 0 -7 5 -4 10 3 6 8 10
11 10 2 0 4 -4 4 -10z m278 -1 c-2 -6 -8 -10 -13 -10 -5 0 -11 4 -13 10 -2 6
4 11 13 11 9 0 15 -5 13 -11z m82 -20 c0 -5 -7 -9 -15 -9 -8 0 -15 7 -15 15 0
9 6 12 15 9 8 -4 15 -10 15 -15z m-520 -15 c0 -7 -9 -12 -20 -11 -12 1 -20 8
-20 18 0 12 6 16 20 12 11 -3 20 -11 20 -19z m207 4 c-3 -8 -6 -5 -6 6 -1 11
2 17 5 13 3 -3 4 -12 1 -19z m-186 -15 c-8 -15 -10 -15 -11 -2 0 17 10 32 18
25 2 -3 -1 -13 -7 -23z m559 12 c0 -8 -4 -15 -10 -15 -5 0 -10 7 -10 15 0 8 5
15 10 15 6 0 10 -7 10 -15z m90 1 c0 -16 -18 -31 -27 -22 -8 8 5 36 17 36 5 0
10 -6 10 -14z m3180 4 c0 -5 -2 -10 -4 -10 -3 0 -8 5 -11 10 -3 6 -1 10 4 10
6 0 11 -4 11 -10z m-3800 -15 c0 -8 -4 -15 -10 -15 -5 0 -7 7 -4 15 4 8 8 15
10 15 2 0 4 -7 4 -15z m220 5 c0 -5 -4 -10 -10 -10 -5 0 -10 5 -10 10 0 6 5
10 10 10 6 0 10 -4 10 -10z m-190 -15 c0 -8 -4 -15 -10 -15 -5 0 -7 7 -4 15 4
8 8 15 10 15 2 0 4 -7 4 -15z m230 5 c0 -5 -5 -10 -11 -10 -5 0 -7 5 -4 10 3
6 8 10 11 10 2 0 4 -4 4 -10z m40 -10 c0 -5 -4 -10 -10 -10 -5 0 -10 5 -10 10
0 6 5 10 10 10 6 0 10 -4 10 -10z m-235 -10 c-3 -5 -11 -10 -16 -10 -6 0 -7 5
-4 10 3 6 11 10 16 10 6 0 7 -4 4 -10z m296 -13 c-13 -13 -26 -3 -16 12 3 6
11 8 17 5 6 -4 6 -10 -1 -17z m-267 -2 c-4 -8 -10 -12 -15 -9 -11 6 -2 24 11
24 5 0 7 -7 4 -15z m354 -7 c-6 -18 -28 -21 -28 -4 0 9 7 16 16 16 9 0 14 -5
12 -12z m-291 -20 c-3 -8 -6 -5 -6 6 -1 11 2 17 5 13 3 -3 4 -12 1 -19z m368
13 c7 -12 -12 -24 -25 -16 -11 7 -4 25 10 25 5 0 11 -4 15 -9z m-585 -11 c0
-5 -5 -10 -11 -10 -5 0 -7 5 -4 10 3 6 8 10 11 10 2 0 4 -4 4 -10z m30 -5 c0
-8 -4 -15 -10 -15 -5 0 -10 7 -10 15 0 8 5 15 10 15 6 0 10 -7 10 -15z m227
-7 c-3 -8 -6 -5 -6 6 -1 11 2 17 5 13 3 -3 4 -12 1 -19z m-197 3 c0 -6 -4 -13
-10 -16 -5 -3 -10 1 -10 9 0 9 5 16 10 16 6 0 10 -4 10 -9z m590 -1 c0 -5 -4
-10 -10 -10 -5 0 -10 5 -10 10 0 6 5 10 10 10 6 0 10 -4 10 -10z m-540 -12 c0
-4 -4 -10 -10 -13 -5 -3 -10 -1 -10 6 0 8 -4 8 -15 -1 -14 -12 -22 0 -9 13 8
8 44 4 44 -5z m210 2 c0 -5 -4 -10 -10 -10 -5 0 -10 5 -10 10 0 6 5 10 10 10
6 0 10 -4 10 -10z m30 -4 c0 -3 -4 -8 -10 -11 -5 -3 -10 -1 -10 4 0 6 5 11 10
11 6 0 10 -2 10 -4z m-210 -16 c0 -5 -4 -10 -10 -10 -5 0 -10 5 -10 10 0 6 5
10 10 10 6 0 10 -4 10 -10z m270 2 c0 -13 -12 -22 -22 -16 -10 6 -1 24 13 24
5 0 9 -4 9 -8z m-472 -13 c-2 -6 -8 -10 -13 -10 -5 0 -11 4 -13 10 -2 6 4 11
13 11 9 0 15 -5 13 -11z m26 2 c3 -4 -4 -17 -15 -27 -21 -19 -21 -18 -8 9 13
30 15 31 23 18z m526 -12 c0 -5 -7 -9 -15 -9 -15 0 -20 12 -9 23 8 8 24 -1 24
-14z m3414 -9 c-6 -6 -10 -2 -11 12 -2 16 1 18 10 9 7 -7 8 -14 1 -21z m-3891
7 c4 3 7 2 7 -4 0 -6 -11 -10 -25 -10 -25 0 -31 7 -18 20 3 4 11 2 18 -3 7 -5
15 -7 18 -3z m177 -7 c0 -5 -4 -10 -10 -10 -5 0 -10 5 -10 10 0 6 5 10 10 10
6 0 10 -4 10 -10z m380 -6 c0 -9 -5 -14 -12 -12 -18 6 -21 28 -4 28 9 0 16 -7
16 -16z m-516 -9 c-4 -8 -7 -15 -9 -15 -2 0 -5 7 -9 15 -3 9 0 15 9 15 9 0 12
-6 9 -15z m176 0 c0 -8 -4 -15 -10 -15 -5 0 -10 7 -10 15 0 8 5 15 10 15 6 0
10 -7 10 -15z m410 0 c0 -8 -4 -15 -9 -15 -13 0 -22 16 -14 24 11 11 23 6 23
-9z m-550 1 c0 -3 -4 -8 -10 -11 -5 -3 -10 -1 -10 4 0 6 5 11 10 11 6 0 10 -2
10 -4z m30 -6 c0 -5 -5 -10 -11 -10 -5 0 -7 5 -4 10 3 6 8 10 11 10 2 0 4 -4
4 -10z m146 -17 c-10 -10 -19 5 -10 18 6 11 8 11 12 0 2 -7 1 -15 -2 -18z m54
-4 c0 -5 -7 -9 -15 -9 -15 0 -20 12 -9 23 8 8 24 -1 24 -14z m66 -15 c-5 -14
-9 -15 -19 -5 -9 9 -9 14 3 21 18 11 24 6 16 -16z m84 -9 c0 -8 -4 -15 -9 -15
-13 0 -22 16 -14 24 11 11 23 6 23 -9z m90 -16 c0 -11 -27 -12 -34 0 -3 4 -3
11 0 14 8 8 34 -3 34 -14z m-458 -11 c-7 -7 -12 -8 -12 -2 0 14 12 26 19 19 2
-3 -1 -11 -7 -17z m48 8 c0 -3 -4 -8 -10 -11 -5 -3 -10 -1 -10 4 0 6 5 11 10
11 6 0 10 -2 10 -4z m470 -6 c0 -5 -7 -10 -16 -10 -8 0 -12 5 -9 10 3 6 10 10
16 10 5 0 9 -4 9 -10z m-440 -10 c0 -5 -5 -10 -11 -10 -5 0 -7 5 -4 10 3 6 8
10 11 10 2 0 4 -4 4 -10z m60 -15 c-7 -9 -15 -13 -17 -11 -7 7 7 26 19 26 6 0
6 -6 -2 -15z m60 -5 c0 -5 -7 -10 -16 -10 -8 0 -12 5 -9 10 3 6 10 10 16 10 5
0 9 -4 9 -10z m-270 -10 c0 -5 -4 -10 -10 -10 -5 0 -10 5 -10 10 0 6 5 10 10
10 6 0 10 -4 10 -10z m340 2 c0 -13 -12 -22 -22 -16 -10 6 -1 24 13 24 5 0 9
-4 9 -8z m-310 -12 c0 -5 -5 -10 -11 -10 -5 0 -7 5 -4 10 3 6 8 10 11 10 2 0
4 -4 4 -10z m398 -2 c-6 -18 -28 -21 -28 -4 0 9 7 16 16 16 9 0 14 -5 12 -12z
m80 -16 c2 -7 -3 -12 -12 -12 -9 0 -16 7 -16 16 0 17 22 14 28 -4z m-639 -9
c0 -11 -3 -13 -6 -5 -2 6 -9 10 -14 6 -5 -3 -9 0 -9 5 0 6 7 11 15 11 8 0 15
-8 14 -17z m195 2 c-4 -8 -8 -15 -10 -15 -2 0 -4 7 -4 15 0 8 4 15 10 15 5 0
7 -7 4 -15z m-164 -5 c0 -5 -4 -10 -10 -10 -5 0 -10 5 -10 10 0 6 5 10 10 10
6 0 10 -4 10 -10z m30 6 c0 -3 -4 -8 -10 -11 -5 -3 -10 -1 -10 4 0 6 5 11 10
11 6 0 10 -2 10 -4z m25 -6 c3 -5 1 -10 -4 -10 -6 0 -11 5 -11 10 0 6 2 10 4
10 3 0 8 -4 11 -10z m155 0 c0 -5 -5 -10 -11 -10 -5 0 -7 5 -4 10 3 6 8 10 11
10 2 0 4 -4 4 -10z m470 0 c0 -5 -7 -10 -15 -10 -8 0 -15 5 -15 10 0 6 7 10
15 10 8 0 15 -4 15 -10z m-425 -10 c-3 -5 -11 -10 -16 -10 -6 0 -7 5 -4 10 3
6 11 10 16 10 6 0 7 -4 4 -10z m50 -10 c-3 -5 -10 -10 -16 -10 -5 0 -9 5 -9
10 0 6 7 10 16 10 8 0 12 -4 9 -10z m55 -15 c0 -8 -4 -15 -9 -15 -13 0 -22 16
-14 24 11 11 23 6 23 -9z m74 -6 c-8 -14 -24 -10 -24 6 0 9 6 12 15 9 8 -4 12
-10 9 -15z m-447 -21 c-3 -8 -6 -5 -6 6 -1 11 2 17 5 13 3 -3 4 -12 1 -19z
m33 1 c0 -6 -4 -7 -10 -4 -5 3 -10 11 -10 16 0 6 5 7 10 4 6 -3 10 -11 10 -16z
m498 9 c-6 -18 -28 -21 -28 -4 0 9 7 16 16 16 9 0 14 -5 12 -12z m-428 -8 c0
-5 -4 -10 -10 -10 -5 0 -10 5 -10 10 0 6 5 10 10 10 6 0 10 -4 10 -10z m55 0
c-3 -5 -10 -10 -16 -10 -5 0 -9 5 -9 10 0 6 7 10 16 10 8 0 12 -4 9 -10z
m-307 -12 c-2 -9 10 -13 34 -13 20 0 34 -4 31 -8 -3 -5 1 -8 8 -6 35 4 59 -2
59 -16 0 -8 -4 -15 -10 -15 -5 0 -10 5 -10 11 0 8 -5 8 -15 -1 -12 -10 -15
-10 -15 0 0 9 -3 10 -13 1 -8 -6 -17 -8 -20 -4 -4 3 -27 5 -52 5 -40 -2 -45 0
-45 19 0 15 5 19 15 15 8 -3 14 -2 14 2 -2 15 1 22 11 22 6 0 9 -6 8 -12z
m366 -9 c-3 -5 -10 -7 -15 -3 -5 3 -7 10 -3 15 3 5 10 7 15 3 5 -3 7 -10 3
-15z m396 11 c0 -5 -7 -10 -15 -10 -8 0 -15 5 -15 10 0 6 7 10 15 10 8 0 15
-4 15 -10z m1842 -132 c1 -79 2 -181 2 -228 l1 -85 -32 -3 -33 -3 0 230 0 231
30 0 30 0 2 -142z m-1772 122 c0 -5 -4 -10 -10 -10 -5 0 -10 5 -10 10 0 6 5
10 10 10 6 0 10 -4 10 -10z m-415 -10 c-3 -5 -10 -10 -16 -10 -5 0 -9 5 -9 10
0 6 7 10 16 10 8 0 12 -4 9 -10z m1431 -14 c9 -39 -2 -46 -72 -46 l-64 0 0
-185 0 -185 -35 0 -35 0 0 185 0 185 -64 0 c-70 0 -80 6 -70 45 l6 25 164 0
164 0 6 -24z m-1386 4 c0 -5 -7 -10 -16 -10 -8 0 -12 5 -9 10 3 6 10 10 16 10
5 0 9 -4 9 -10z m120 0 c0 -5 -5 -10 -11 -10 -5 0 -7 5 -4 10 3 6 8 10 11 10
2 0 4 -4 4 -10z m-420 -16 c0 -8 -5 -12 -10 -9 -6 4 -8 11 -5 16 9 14 15 11
15 -7z m350 0 c0 -8 -4 -12 -10 -9 -5 3 -10 10 -10 16 0 5 5 9 10 9 6 0 10 -7
10 -16z m-300 -4 c0 -5 -7 -10 -15 -10 -8 0 -15 5 -15 10 0 6 7 10 15 10 8 0
15 -4 15 -10z m60 0 c0 -16 -17 -20 -28 -7 -8 10 -6 13 9 14 10 1 19 -2 19 -7z
m50 -10 c0 -5 -7 -10 -15 -10 -8 0 -15 5 -15 10 0 6 7 10 15 10 8 0 15 -4 15
-10z m350 -5 c0 -8 -4 -15 -9 -15 -13 0 -22 16 -14 24 11 11 23 6 23 -9z m90
-5 c0 -5 -7 -10 -15 -10 -8 0 -15 5 -15 10 0 6 7 10 15 10 8 0 15 -4 15 -10z
m-717 -12 c10 1 17 -7 17 -19 0 -10 -4 -19 -10 -19 -5 0 -10 4 -10 9 0 10 -32
10 -40 -1 -3 -3 -17 -4 -33 -1 -18 4 -27 12 -27 24 0 17 5 18 43 13 23 -3 50
-6 60 -6z m524 -10 c-3 -8 -6 -5 -6 6 -1 11 2 17 5 13 3 -3 4 -12 1 -19z
m-173 -3 c-4 -8 -12 -15 -20 -15 -20 0 -17 18 4 23 9 3 18 5 19 6 1 0 0 -6 -3
-14z m-304 -4 c0 -6 -4 -13 -10 -16 -5 -3 -10 1 -10 9 0 9 5 16 10 16 6 0 10
-4 10 -9z m63 -7 c-3 -14 -23 -17 -23 -4 0 10 -4 10 -15 0 -14 -12 -22 0 -9
13 10 9 49 2 47 -9z m294 -10 c-9 -9 -28 6 -21 18 4 6 10 6 17 -1 6 -6 8 -13
4 -17z m-257 12 c0 -3 -4 -8 -10 -11 -5 -3 -10 -1 -10 4 0 6 5 11 10 11 6 0
10 -2 10 -4z m40 0 c0 -2 -7 -6 -15 -10 -8 -3 -15 -1 -15 4 0 6 7 10 15 10 8
0 15 -2 15 -4z m60 -6 c0 -5 -4 -10 -10 -10 -5 0 -10 5 -10 10 0 6 5 10 10 10
6 0 10 -4 10 -10z m220 -10 c0 -5 -4 -10 -10 -10 -5 0 -10 5 -10 10 0 6 5 10
10 10 6 0 10 -4 10 -10z m1550 -15 c97 -50 102 -228 9 -298 -36 -26 -114 -27
-157 -2 -41 25 -72 88 -72 148 0 101 56 167 141 167 28 0 63 -7 79 -15z m340
0 c102 -53 100 -252 -4 -303 -39 -19 -110 -17 -146 4 -58 35 -88 146 -59 221
13 34 47 72 74 83 32 14 104 11 135 -5z m-1740 -5 c0 -5 -4 -10 -10 -10 -5 0
-10 5 -10 10 0 6 5 10 10 10 6 0 10 -4 10 -10z m90 -11 c0 -5 -4 -9 -10 -9 -5
0 -10 7 -10 16 0 8 5 12 10 9 6 -3 10 -10 10 -16z m-580 1 c0 -5 -5 -10 -11
-10 -5 0 -7 5 -4 10 3 6 8 10 11 10 2 0 4 -4 4 -10z m90 0 c0 -5 -4 -10 -10
-10 -5 0 -10 5 -10 10 0 6 5 10 10 10 6 0 10 -4 10 -10z m40 0 c0 -5 -4 -10
-10 -10 -5 0 -10 5 -10 10 0 6 5 10 10 10 6 0 10 -4 10 -10z m270 0 c0 -5 -4
-10 -10 -10 -5 0 -10 5 -10 10 0 6 5 10 10 10 6 0 10 -4 10 -10z m-510 -67 c0
-13 -7 -15 -47 -16 -13 0 -23 -5 -23 -11 0 -6 -5 -4 -10 4 -8 12 -10 11 -10
-7 0 -13 5 -23 10 -23 6 0 10 -6 9 -12 -1 -7 -1 -20 0 -28 1 -13 2 -13 11 0 8
13 10 12 10 -3 0 -10 6 -17 13 -16 20 3 77 -22 71 -32 -3 -5 -10 -9 -15 -9 -6
0 -7 6 -3 13 6 9 4 9 -7 1 -8 -5 -20 -9 -26 -8 -7 1 -27 2 -44 3 -21 1 -28 5
-23 14 5 8 2 8 -9 -2 -9 -7 -17 -19 -17 -25 0 -6 5 -4 10 4 7 12 11 10 19 -10
5 -14 10 -20 10 -14 1 12 31 14 41 4 3 -3 18 -10 34 -15 29 -10 48 -35 26 -35
-6 0 -8 5 -4 12 5 8 2 9 -9 5 -10 -4 -17 -2 -17 5 0 7 -4 7 -13 -1 -8 -6 -16
-9 -18 -7 -2 2 -21 6 -42 9 -26 4 -37 2 -35 -5 2 -6 15 -13 28 -15 13 -2 29
-8 35 -13 7 -5 14 -7 18 -4 3 3 14 1 24 -6 16 -10 16 -11 1 -6 -12 3 -18 0
-18 -9 0 -16 30 -9 42 9 5 7 8 4 8 -7 0 -10 5 -15 10 -12 6 3 10 1 10 -5 0 -7
7 -10 14 -7 10 4 13 1 9 -9 -4 -11 -9 -12 -19 -3 -10 8 -14 8 -14 0 0 -6 -4
-11 -10 -11 -5 0 -6 8 -3 18 6 14 4 15 -9 5 -8 -7 -29 -11 -47 -9 -17 2 -34
-1 -38 -7 -4 -6 -1 -7 7 -2 9 6 10 2 5 -16 -7 -21 -6 -22 8 -11 9 8 25 11 35
7 17 -5 18 -9 8 -30 -6 -14 -14 -25 -18 -25 -4 0 -16 -15 -28 -32 l-22 -33 25
27 c20 21 26 24 31 13 3 -8 2 -23 -1 -32 -6 -14 -3 -14 20 3 31 23 35 38 7 29
-24 -7 -27 10 -4 19 19 7 34 -1 34 -19 0 -7 3 -15 8 -18 4 -2 1 -2 -7 0 -7 2
-11 -2 -8 -9 19 -48 20 -51 9 -44 -8 4 -12 1 -12 -10 0 -10 -3 -15 -6 -11 -8
8 -28 -13 -37 -38 -7 -19 -6 -19 7 -1 8 10 19 15 25 11 6 -3 11 -2 11 2 0 5 9
14 21 21 18 12 19 11 10 -7 -14 -25 -14 -41 -1 -41 6 0 10 7 8 16 -2 10 2 19
7 20 6 2 10 -11 11 -29 1 -17 -1 -26 -3 -19 -3 6 -9 9 -15 6 -5 -4 -2 -14 8
-25 15 -17 15 -19 0 -34 -16 -16 -36 -13 -36 7 0 5 7 8 15 5 8 -4 17 -2 20 2
7 13 -20 21 -36 10 -11 -7 -12 -12 -1 -29 19 -31 14 -48 -7 -21 -18 23 -42 22
-40 -2 0 -9 2 -9 6 1 8 19 19 14 32 -15 9 -20 15 -23 20 -14 14 22 23 -6 11
-29 -10 -19 -10 -20 9 -8 11 6 17 16 15 20 -3 4 -1 8 5 8 5 0 13 -4 16 -10 3
-5 1 -10 -5 -10 -6 0 -8 -5 -4 -12 4 -7 3 -8 -4 -4 -7 4 -12 1 -12 -8 0 -9 -5
-16 -11 -16 -8 0 -8 -4 1 -15 9 -11 8 -18 -9 -36 -12 -13 -21 -28 -21 -33 0
-6 11 2 23 18 14 17 29 26 35 22 7 -4 12 -1 12 6 0 8 9 20 20 28 11 8 20 20
20 27 0 7 4 13 8 13 4 0 8 -9 8 -20 0 -10 -2 -17 -5 -15 -2 3 -17 -11 -34 -30
-16 -19 -33 -32 -38 -30 -4 3 -7 -4 -6 -15 1 -23 17 -28 17 -5 0 8 5 15 11 15
7 0 22 12 35 27 19 22 26 25 36 15 11 -11 10 -12 -4 -7 -11 4 -18 0 -22 -13
-4 -10 -16 -29 -27 -41 -16 -17 -18 -26 -10 -34 16 -16 13 -30 -5 -23 -9 3
-12 2 -9 -5 4 -6 -1 -19 -11 -30 -19 -21 -6 -27 15 -6 11 10 13 9 8 -5 -7 -20
10 -35 25 -20 6 6 3 15 -8 26 -15 16 -15 18 2 32 18 13 18 15 1 25 -16 9 -15
12 10 39 27 29 47 34 24 6 -9 -11 -9 -16 0 -21 6 -4 15 -1 20 6 7 11 9 10 9
-3 0 -10 5 -18 10 -18 6 0 10 -5 10 -12 0 -9 -3 -9 -12 0 -21 21 -29 13 -12
-13 12 -19 22 -24 37 -19 20 6 20 6 3 -11 -17 -17 -19 -17 -28 -2 -11 21 -29
23 -22 2 4 -8 2 -15 -4 -15 -18 0 -20 24 -3 37 15 11 15 12 0 13 -22 0 -33
-29 -18 -47 10 -11 5 -21 -21 -48 -19 -19 -37 -32 -40 -28 -3 5 -16 34 -29 66
-18 43 -21 61 -12 70 16 16 13 31 -4 17 -12 -10 -17 -7 -26 16 -6 16 -12 36
-14 44 -2 8 -15 46 -29 84 -23 65 -23 71 -8 83 9 7 21 13 26 13 4 0 6 7 2 15
-3 9 0 15 9 15 8 0 15 5 15 11 0 5 5 7 10 4 6 -3 10 -2 10 4 0 5 -4 13 -10 16
-5 3 -10 1 -10 -4 0 -6 -6 -11 -12 -11 -7 0 -21 -14 -31 -32 -11 -18 -22 -27
-27 -22 -12 12 -45 141 -54 214 -3 25 -10 79 -15 120 -6 41 -12 123 -15 182
l-5 108 65 -2 c45 -1 64 -6 64 -15z m30 -5 c0 -16 -3 -19 -11 -11 -6 6 -8 16
-5 22 11 17 16 13 16 -11z m192 0 c-7 -7 -12 -8 -12 -2 0 14 12 26 19 19 2 -3
-1 -11 -7 -17z m149 7 c-1 -15 -24 -12 -29 3 -3 9 2 13 12 10 10 -1 17 -7 17
-13z m144 5 c3 -5 -1 -10 -9 -10 -9 0 -16 5 -16 10 0 6 4 10 9 10 6 0 13 -4
16 -10z m-455 -10 c0 -5 -2 -10 -4 -10 -3 0 -8 5 -11 10 -3 6 -1 10 4 10 6 0
11 -4 11 -10z m30 -6 c0 -8 -4 -12 -10 -9 -5 3 -10 10 -10 16 0 5 5 9 10 9 6
0 10 -7 10 -16z m40 0 c0 -14 -3 -14 -15 -4 -8 7 -15 14 -15 16 0 2 7 4 15 4
8 0 15 -7 15 -16z m70 12 c0 -11 -19 -15 -25 -6 -3 5 1 10 9 10 9 0 16 -2 16
-4z m480 0 c0 -3 -4 -8 -10 -11 -5 -3 -10 -1 -10 4 0 6 5 11 10 11 6 0 10 -2
10 -4z m2354 -2 c20 -8 9 -34 -15 -34 -18 0 -26 20 -12 33 8 8 8 8 27 1z m-74
-14 c0 -5 -7 -10 -15 -10 -8 0 -15 5 -15 10 0 6 7 10 15 10 8 0 15 -4 15 -10z
m-2730 -30 c0 -5 -4 -10 -10 -10 -5 0 -10 5 -10 10 0 6 5 10 10 10 6 0 10 -4
10 -10z m70 -4 c0 -3 -4 -8 -10 -11 -5 -3 -10 -1 -10 4 0 6 5 11 10 11 6 0 10
-2 10 -4z m50 -20 c0 -3 -4 -8 -10 -11 -5 -3 -10 -1 -10 4 0 6 5 11 10 11 6 0
10 -2 10 -4z m345 -5 c3 -5 1 -12 -5 -16 -5 -3 -10 1 -10 9 0 18 6 21 15 7z
m-290 -21 c-3 -5 -11 -10 -16 -10 -6 0 -7 5 -4 10 3 6 11 10 16 10 6 0 7 -4 4
-10z m-255 -20 c0 -5 -4 -10 -10 -10 -5 0 -10 5 -10 10 0 6 5 10 10 10 6 0 10
-4 10 -10z m23 -5 c-3 -9 -8 -14 -10 -11 -3 3 -2 9 2 15 9 16 15 13 8 -4z
m287 5 c0 -5 -4 -10 -10 -10 -5 0 -10 5 -10 10 0 6 5 10 10 10 6 0 10 -4 10
-10z m-250 -16 c0 -8 -4 -12 -10 -9 -5 3 -10 10 -10 16 0 5 5 9 10 9 6 0 10
-7 10 -16z m311 3 c-1 -12 -15 -9 -19 4 -3 6 1 10 8 8 6 -3 11 -8 11 -12z
m-261 -13 c0 -8 -4 -12 -10 -9 -5 3 -10 10 -10 16 0 5 5 9 10 9 6 0 10 -7 10
-16z m338 5 c-2 -6 -8 -10 -13 -10 -5 0 -11 4 -13 10 -2 6 4 11 13 11 9 0 15
-5 13 -11z m-298 -14 c0 -8 -4 -15 -10 -15 -5 0 -10 7 -10 15 0 8 5 15 10 15
6 0 10 -7 10 -15z m-230 1 c0 -3 -4 -8 -10 -11 -5 -3 -10 -1 -10 4 0 6 5 11
10 11 6 0 10 -2 10 -4z m273 -22 c-4 -10 -9 -12 -15 -6 -12 12 -1 35 12 27 5
-3 6 -13 3 -21z m-213 -5 c0 -14 -17 -10 -23 5 -4 10 -1 13 9 9 7 -3 14 -9 14
-14z m560 1 c0 -11 -4 -20 -9 -20 -11 0 -22 26 -14 34 12 12 23 5 23 -14z
m-292 -1 c-2 -6 -8 -10 -13 -10 -5 0 -11 4 -13 10 -2 6 4 11 13 11 9 0 15 -5
13 -11z m-228 -8 c0 -17 -18 -21 -24 -6 -3 9 0 15 9 15 8 0 15 -4 15 -9z m26
-28 c-10 -10 -19 5 -10 18 6 11 8 11 12 0 2 -7 1 -15 -2 -18z m262 16 c-2 -6
-8 -10 -13 -10 -5 0 -11 4 -13 10 -2 6 4 11 13 11 9 0 15 -5 13 -11z m-396
-31 c-7 -7 -12 -8 -12 -2 0 14 12 26 19 19 2 -3 -1 -11 -7 -17z m196 2 c4 -12
3 -13 -10 -3 -8 7 -18 10 -21 6 -4 -3 -7 -1 -7 6 0 17 32 10 38 -9z m272 10
c0 -5 -7 -10 -15 -10 -8 0 -15 5 -15 10 0 6 7 10 15 10 8 0 15 -4 15 -10z m68
-19 c3 -8 -1 -12 -9 -9 -7 2 -15 10 -17 17 -3 8 1 12 9 9 7 -2 15 -10 17 -17z
m-494 3 c9 -3 16 -14 16 -23 -1 -15 -2 -15 -13 0 -7 9 -18 14 -26 11 -8 -3
-11 0 -7 7 8 13 9 13 30 5z m198 -9 c0 -5 -5 -11 -11 -13 -6 -2 -11 4 -11 13
0 9 5 15 11 13 6 -2 11 -8 11 -13z m-146 -30 c1 -8 -2 -13 -7 -9 -5 3 -9 12
-9 21 0 19 13 9 16 -12z m204 15 c0 -5 -4 -10 -10 -10 -5 0 -10 5 -10 10 0 6
5 10 10 10 6 0 10 -4 10 -10z m60 -10 c0 -5 -4 -10 -10 -10 -5 0 -10 5 -10 10
0 6 5 10 10 10 6 0 10 -4 10 -10z m280 -6 c0 -17 -22 -14 -28 4 -2 7 3 12 12
12 9 0 16 -7 16 -16z m-510 -4 c0 -5 -2 -10 -4 -10 -3 0 -8 5 -11 10 -3 6 -1
10 4 10 6 0 11 -4 11 -10z m40 -15 c0 -8 -4 -15 -9 -15 -13 0 -22 16 -14 24
11 11 23 6 23 -9z m240 0 c0 -8 -4 -15 -9 -15 -13 0 -22 16 -14 24 11 11 23 6
23 -9z m-366 -26 c-6 -11 -24 -2 -24 11 0 5 7 7 15 4 8 -4 12 -10 9 -15z m166
5 c0 -8 -4 -12 -10 -9 -5 3 -10 10 -10 16 0 5 5 9 10 9 6 0 10 -7 10 -16z
m261 3 c-1 -12 -15 -9 -19 4 -3 6 1 10 8 8 6 -3 11 -8 11 -12z m71 -12 c0 -5
-5 -11 -11 -13 -6 -2 -11 4 -11 13 0 9 5 15 11 13 6 -2 11 -8 11 -13z m-472
-5 c0 -5 -5 -10 -11 -10 -5 0 -7 5 -4 10 3 6 8 10 11 10 2 0 4 -4 4 -10z m190
0 c0 -5 -4 -10 -10 -10 -5 0 -10 5 -10 10 0 6 5 10 10 10 6 0 10 -4 10 -10z
m-286 -17 c4 -10 4 -14 0 -10 -4 4 -14 1 -22 -6 -13 -11 -14 -9 -1 11 17 26
15 26 23 5z m131 7 c4 -6 10 -8 15 -5 4 3 10 -1 13 -8 3 -8 -1 -14 -9 -14 -7
0 -16 7 -18 14 -3 8 -10 11 -16 8 -5 -3 -10 -1 -10 4 0 14 17 14 25 1z m205
-10 c0 -5 -4 -10 -10 -10 -5 0 -10 5 -10 10 0 6 5 10 10 10 6 0 10 -4 10 -10z
m58 -12 c-6 -18 -28 -21 -28 -4 0 9 7 16 16 16 9 0 14 -5 12 -12z m282 -4 c0
-9 -5 -14 -12 -12 -18 6 -21 28 -4 28 9 0 16 -7 16 -16z m-480 -3 c0 -6 -4
-13 -10 -16 -5 -3 -10 1 -10 9 0 9 5 16 10 16 6 0 10 -4 10 -9z m248 -15 c3
-12 -1 -17 -10 -14 -7 3 -15 13 -16 22 -3 12 1 17 10 14 7 -3 15 -13 16 -22z
m-378 -17 c0 -5 -4 -9 -10 -9 -5 0 -10 4 -10 10 0 5 -8 7 -17 4 -14 -5 -15 -4
-4 4 15 11 41 5 41 -9z m160 17 c0 -3 -4 -8 -10 -11 -5 -3 -10 -1 -10 4 0 6 5
11 10 11 6 0 10 -2 10 -4z m281 -19 c-13 -13 -26 -3 -16 12 3 6 11 8 17 5 6
-4 6 -10 -1 -17z m-416 4 c3 -5 1 -12 -5 -16 -5 -3 -10 1 -10 9 0 18 6 21 15
7z m165 -6 c0 -8 -4 -15 -10 -15 -5 0 -10 7 -10 15 0 8 5 15 10 15 6 0 10 -7
10 -15z m-130 -16 c0 -5 -4 -9 -10 -9 -5 0 -10 7 -10 16 0 8 5 12 10 9 6 -3
10 -10 10 -16z m460 5 c0 -9 -5 -14 -12 -12 -18 6 -21 28 -4 28 9 0 16 -7 16
-16z m-280 -9 c0 -9 -6 -12 -15 -9 -8 4 -12 10 -9 15 8 14 24 10 24 -6z m-150
1 c0 -3 -4 -8 -10 -11 -5 -3 -10 -1 -10 4 0 6 5 11 10 11 6 0 10 -2 10 -4z
m192 -28 c-9 -9 -12 -7 -12 12 0 19 3 21 12 12 9 -9 9 -15 0 -24z m58 -9 c0
-5 -4 -9 -10 -9 -5 0 -10 7 -10 16 0 8 5 12 10 9 6 -3 10 -10 10 -16z m280 6
c0 -9 -6 -12 -15 -9 -8 4 -15 10 -15 15 0 5 7 9 15 9 8 0 15 -7 15 -15z m-627
-10 c-10 -7 -21 -11 -25 -9 -16 10 -7 19 18 20 23 2 24 1 7 -11z m147 5 c0 -5
-4 -10 -10 -10 -5 0 -10 5 -10 10 0 6 5 10 10 10 6 0 10 -4 10 -10z m250 -10
c0 -5 -4 -10 -10 -10 -5 0 -10 5 -10 10 0 6 5 10 10 10 6 0 10 -4 10 -10z
m-210 -15 c0 -8 -2 -15 -4 -15 -2 0 -6 7 -10 15 -3 8 -1 15 4 15 6 0 10 -7 10
-15z m270 0 c0 -8 -4 -15 -10 -15 -5 0 -10 7 -10 15 0 8 5 15 10 15 6 0 10 -7
10 -15z m-425 -5 c3 -5 1 -10 -4 -10 -6 0 -11 5 -11 10 0 6 2 10 4 10 3 0 8
-4 11 -10z m190 -10 c-3 -5 -11 -10 -16 -10 -6 0 -7 5 -4 10 3 6 11 10 16 10
6 0 7 -4 4 -10z m315 -6 c0 -14 -3 -14 -15 -4 -8 7 -15 14 -15 16 0 2 7 4 15
4 8 0 15 -7 15 -16z m-489 -21 c-12 -20 -14 -14 -5 12 4 9 9 14 11 11 3 -2 0
-13 -6 -23z m209 17 c0 -5 -4 -10 -10 -10 -5 0 -10 5 -10 10 0 6 5 10 10 10 6
0 10 -4 10 -10z m-140 -10 c0 -5 -5 -10 -11 -10 -5 0 -7 5 -4 10 3 6 8 10 11
10 2 0 4 -4 4 -10z m176 -17 c-10 -10 -19 5 -10 18 6 11 8 11 12 0 2 -7 1 -15
-2 -18z m62 -5 c-5 -15 -23 -11 -26 6 -2 11 2 14 13 10 9 -4 14 -11 13 -16z
m282 7 c0 -8 -4 -15 -10 -15 -5 0 -10 7 -10 15 0 8 5 15 10 15 6 0 10 -7 10
-15z m-582 -35 c-7 -10 -14 -18 -15 -16 -6 6 9 36 18 36 5 0 4 -9 -3 -20z m42
10 c0 -5 -2 -10 -4 -10 -3 0 -8 5 -11 10 -3 6 -1 10 4 10 6 0 11 -4 11 -10z
m100 -11 c0 -6 -4 -7 -10 -4 -5 3 -10 11 -10 16 0 6 5 7 10 4 6 -3 10 -11 10
-16z m210 6 c0 -8 -4 -15 -10 -15 -5 0 -10 7 -10 15 0 8 5 15 10 15 6 0 10 -7
10 -15z m68 -24 c3 -8 -1 -12 -9 -9 -7 2 -15 10 -17 17 -3 8 1 12 9 9 7 -2 15
-10 17 -17z m74 4 c0 -5 -5 -11 -11 -13 -6 -2 -11 4 -11 13 0 9 5 15 11 13 6
-2 11 -8 11 -13z m-502 -59 c0 -6 -7 -1 -15 10 -8 10 -15 23 -15 28 0 6 7 1
15 -10 8 -10 15 -23 15 -28z m280 34 c0 -5 -4 -10 -10 -10 -5 0 -10 5 -10 10
0 6 5 10 10 10 6 0 10 -4 10 -10z m-251 -34 c-3 -3 -11 5 -18 17 -13 21 -12
21 5 5 10 -10 16 -20 13 -22z m581 24 c0 -5 -4 -10 -10 -10 -5 0 -10 5 -10 10
0 6 5 10 10 10 6 0 10 -4 10 -10z m-640 -20 c0 -5 -8 -6 -17 -3 -12 5 -15 2
-10 -10 6 -17 -4 -23 -16 -10 -9 9 23 44 34 37 5 -3 9 -9 9 -14z m360 4 c0 -9
-5 -14 -12 -12 -18 6 -21 28 -4 28 9 0 16 -7 16 -16z m58 -22 c2 -7 -3 -12
-12 -12 -9 0 -16 7 -16 16 0 17 22 14 28 -4z m137 -22 c-5 -8 -11 -8 -17 -2
-6 6 -7 16 -3 22 5 8 11 8 17 2 6 -6 7 -16 3 -22z m-71 -12 c-3 -5 -12 -4 -20
3 -7 6 -11 15 -8 21 3 5 12 4 20 -3 7 -6 11 -15 8 -21z m-154 1 c0 -6 -4 -7
-10 -4 -5 3 -10 11 -10 16 0 6 5 7 10 4 6 -3 10 -11 10 -16z m-321 -39 c-22
-29 -39 -39 -39 -21 0 4 11 17 25 27 14 10 25 26 26 34 0 9 2 11 5 3 3 -7 -5
-26 -17 -43z m649 31 c3 -8 -1 -12 -9 -9 -7 2 -15 10 -17 17 -3 8 1 12 9 9 7
-2 15 -10 17 -17z m-288 -21 c0 -5 -4 -10 -10 -10 -5 0 -10 5 -10 10 0 6 5 10
10 10 6 0 10 -4 10 -10z m-110 -10 c0 -5 -4 -10 -10 -10 -5 0 -10 5 -10 10 0
6 5 10 10 10 6 0 10 -4 10 -10z m178 -19 c3 -8 -1 -12 -9 -9 -7 2 -15 10 -17
17 -3 8 1 12 9 9 7 -2 15 -10 17 -17z m140 1 c2 -7 -3 -12 -12 -12 -9 0 -16 7
-16 16 0 17 22 14 28 -4z m-238 -12 c0 -5 -4 -10 -10 -10 -5 0 -10 5 -10 10 0
6 5 10 10 10 6 0 10 -4 10 -10z m168 -10 c15 -24 0 -27 -22 -4 -19 19 -20 24
-3 24 7 0 18 -9 25 -20z m-268 0 c0 -5 -2 -10 -4 -10 -3 0 -8 5 -11 10 -3 6
-1 10 4 10 6 0 11 -4 11 -10z m438 -9 c3 -8 -1 -12 -9 -9 -7 2 -15 10 -17 17
-3 8 1 12 9 9 7 -2 15 -10 17 -17z m-523 -1 c3 -6 -1 -7 -9 -4 -18 7 -21 14
-7 14 6 0 13 -4 16 -10z m45 0 c0 -5 -4 -10 -10 -10 -5 0 -10 5 -10 10 0 6 5
10 10 10 6 0 10 -4 10 -10z m167 -22 c-3 -8 -6 -5 -6 6 -1 11 2 17 5 13 3 -3
4 -12 1 -19z m-153 0 c-4 -6 1 -17 11 -25 11 -7 14 -13 8 -13 -16 0 -36 28
-28 40 3 5 8 10 11 10 3 0 2 -5 -2 -12z m101 -8 c3 -5 1 -10 -4 -10 -6 0 -11
5 -11 10 0 6 2 10 4 10 3 0 8 -4 11 -10z m283 -8 c3 -9 -2 -13 -14 -10 -9 1
-19 9 -22 16 -3 9 2 13 14 10 9 -1 19 -9 22 -16z m-178 -2 c0 -5 -4 -10 -10
-10 -5 0 -10 5 -10 10 0 6 5 10 10 10 6 0 10 -4 10 -10z m50 -16 c0 -8 -4 -12
-10 -9 -5 3 -10 10 -10 16 0 5 5 9 10 9 6 0 10 -7 10 -16z m-337 -11 c-3 -7
-6 -13 -8 -13 -2 0 -5 6 -8 13 -3 8 1 14 8 14 7 0 11 -6 8 -14z m212 7 c3 -5
1 -10 -4 -10 -6 0 -11 5 -11 10 0 6 2 10 4 10 3 0 8 -4 11 -10z m-125 -21 c0
-14 -17 -10 -23 5 -4 10 -1 13 9 9 7 -3 14 -9 14 -14z m318 -15 c-10 -10 -28
6 -28 24 0 15 1 15 17 -1 9 -9 14 -19 11 -23z m-148 16 c0 -5 -2 -10 -4 -10
-3 0 -8 5 -11 10 -3 6 -1 10 4 10 6 0 11 -4 11 -10z m310 0 c0 -5 -7 -10 -15
-10 -8 0 -15 5 -15 10 0 6 7 10 15 10 8 0 15 -4 15 -10z m-460 -30 c0 -5 -4
-10 -10 -10 -5 0 -10 5 -10 10 0 6 5 10 10 10 6 0 10 -4 10 -10z m40 0 c0 -5
-4 -10 -10 -10 -5 0 -10 5 -10 10 0 6 5 10 10 10 6 0 10 -4 10 -10z m150 6 c0
-3 -4 -8 -10 -11 -5 -3 -10 -1 -10 4 0 6 5 11 10 11 6 0 10 -2 10 -4z m190
-12 c0 -9 -5 -14 -12 -12 -18 6 -21 28 -4 28 9 0 16 -7 16 -16z m-140 -4 c0
-5 -7 -10 -15 -10 -8 0 -15 5 -15 10 0 6 7 10 15 10 8 0 15 -4 15 -10z m-266
-16 c5 -14 4 -15 -9 -4 -17 14 -19 20 -6 20 5 0 12 -7 15 -16z m-59 -14 c3 -5
1 -10 -4 -10 -6 0 -11 5 -11 10 0 6 2 10 4 10 3 0 8 -4 11 -10z m39 -6 c4 -10
1 -14 -6 -12 -15 5 -23 28 -10 28 5 0 13 -7 16 -16z m356 6 c0 -5 -7 -10 -15
-10 -8 0 -15 5 -15 10 0 6 7 10 15 10 8 0 15 -4 15 -10z m171 -13 c-1 -12 -15
-9 -19 4 -3 6 1 10 8 8 6 -3 11 -8 11 -12z m-586 -7 c3 -5 1 -10 -4 -10 -6 0
-11 5 -11 10 0 6 2 10 4 10 3 0 8 -4 11 -10z m103 -15 c-3 -3 -9 2 -12 12 -6
14 -5 15 5 6 7 -7 10 -15 7 -18z m-48 -29 c0 -12 -5 -7 -19 24 -11 24 -11 24
3 6 9 -11 16 -24 16 -30z m390 28 c0 -8 -4 -12 -10 -9 -5 3 -10 10 -10 16 0 5
5 9 10 9 6 0 10 -7 10 -16z m-340 -42 c0 -3 -9 3 -20 13 -11 10 -20 23 -20 28
0 6 9 0 20 -13 11 -13 20 -25 20 -28z m400 38 c0 -5 -4 -10 -10 -10 -5 0 -10
5 -10 10 0 6 5 10 10 10 6 0 10 -4 10 -10z m-476 -40 c-6 -5 -24 21 -24 34 0
6 6 1 14 -10 8 -10 12 -21 10 -24z m324 22 c6 -18 -15 -14 -22 4 -4 10 -1 14
6 12 6 -2 14 -10 16 -16z m-123 -2 c3 -5 1 -10 -4 -10 -6 0 -11 5 -11 10 0 6
2 10 4 10 3 0 8 -4 11 -10z m-230 -10 c3 -5 1 -10 -4 -10 -6 0 -11 -7 -11 -16
0 -14 3 -14 15 -4 10 9 15 9 15 1 0 -6 -4 -11 -10 -11 -5 0 -10 -6 -10 -14 0
-8 -16 -31 -35 -52 -42 -48 -47 -26 -5 26 26 33 28 39 13 42 -15 3 -15 4 0 19
9 9 13 19 10 23 -4 3 -1 6 5 6 6 0 14 -4 17 -10z m535 -12 c0 -13 -23 -5 -28
10 -2 7 2 10 12 6 9 -3 16 -11 16 -16z m-465 -25 c-20 -20 -24 -16 -12 11 7
15 14 20 18 14 4 -6 1 -17 -6 -25z m331 10 c-10 -10 -19 5 -10 18 6 11 8 11
12 0 2 -7 1 -15 -2 -18z m-126 7 c0 -5 -2 -10 -4 -10 -3 0 -8 5 -11 10 -3 6
-1 10 4 10 6 0 11 -4 11 -10z m195 -10 c3 -5 -1 -10 -9 -10 -8 0 -18 5 -21 10
-3 6 1 10 9 10 8 0 18 -4 21 -10z m160 -11 c4 -6 5 -12 2 -15 -7 -7 -37 7 -37
17 0 13 27 11 35 -2z m-578 -39 c2 -2 8 2 13 10 6 8 10 11 10 5 0 -5 -5 -17
-11 -25 -8 -11 -12 -12 -16 -2 -2 7 -11 18 -18 26 -8 7 -11 17 -8 20 4 4 11
-1 16 -11 6 -10 12 -20 14 -23z m253 30 c0 -5 -4 -10 -10 -10 -5 0 -10 5 -10
10 0 6 5 10 10 10 6 0 10 -4 10 -10z m70 -10 c0 -5 -4 -10 -10 -10 -5 0 -10 5
-10 10 0 6 5 10 10 10 6 0 10 -4 10 -10z m-220 -30 c6 8 10 11 10 5 0 -28 -17
-35 -38 -15 -12 12 -22 26 -22 32 0 6 9 0 21 -13 17 -19 22 -21 29 -9z m280
20 c0 -5 -2 -10 -4 -10 -3 0 -8 5 -11 10 -3 6 -1 10 4 10 6 0 11 -4 11 -10z
m-400 -44 c0 -6 -6 -2 -13 8 -13 17 -14 17 -30 -8 -9 -14 -17 -29 -17 -34 0
-15 -28 -34 -34 -24 -3 5 10 31 30 56 33 44 37 46 50 29 7 -10 14 -22 14 -27z
m510 34 c0 -5 -4 -10 -10 -10 -5 0 -10 5 -10 10 0 6 5 10 10 10 6 0 10 -4 10
-10z m-60 -10 c0 -5 -4 -10 -10 -10 -5 0 -10 5 -10 10 0 6 5 10 10 10 6 0 10
-4 10 -10z m-260 -4 c0 -3 -4 -8 -10 -11 -5 -3 -10 -1 -10 4 0 6 5 11 10 11 6
0 10 -2 10 -4z m40 -28 c0 -5 -7 -3 -15 6 -8 8 -15 18 -15 22 0 3 7 1 15 -6 8
-7 15 -17 15 -22z m245 12 c3 -5 1 -10 -4 -10 -6 0 -11 5 -11 10 0 6 2 10 4
10 3 0 8 -4 11 -10z m-400 -18 c-16 -11 -16 -38 -1 -51 11 -10 17 -7 30 11 9
12 16 19 16 14 0 -4 -9 -19 -20 -33 -11 -14 -20 -21 -20 -15 0 11 -30 25 -38
17 -3 -3 3 -11 13 -18 16 -13 16 -15 2 -33 -9 -10 -25 -30 -35 -44 -19 -23
-20 -23 -37 -6 -15 14 -16 21 -6 43 9 19 15 23 23 15 8 -8 8 -15 -2 -27 -7 -8
-10 -19 -6 -23 4 -4 12 1 17 10 5 9 17 24 25 33 12 12 13 19 4 30 -9 10 -9 19
0 35 6 12 9 24 6 27 -3 3 2 12 12 19 9 7 19 10 22 8 2 -3 0 -8 -5 -12z m545
-4 c0 -13 -23 -5 -28 10 -2 7 2 10 12 6 9 -3 16 -11 16 -16z m-645 -15 c-5
-10 -9 -20 -9 -23 -5 -20 -25 -42 -35 -36 -7 5 -2 20 16 47 26 39 43 47 28 12z
m193 2 c-3 -3 -9 2 -12 12 -6 14 -5 15 5 6 7 -7 10 -15 7 -18z m36 9 c3 -8 2
-12 -4 -9 -6 3 -10 10 -10 16 0 14 7 11 14 -7z m156 6 c0 -5 -4 -10 -10 -10
-5 0 -10 5 -10 10 0 6 5 10 10 10 6 0 10 -4 10 -10z m50 0 c0 -5 -2 -10 -4
-10 -3 0 -8 5 -11 10 -3 6 -1 10 4 10 6 0 11 -4 11 -10z m124 -6 c4 -10 1 -14
-6 -12 -15 5 -23 28 -10 28 5 0 13 -7 16 -16z m-524 -9 c-7 -9 -10 -19 -6 -22
4 -4 11 -1 16 7 7 11 10 11 10 2 0 -7 -6 -15 -14 -18 -7 -3 -22 -21 -32 -40
-20 -37 -34 -44 -34 -16 1 23 25 54 35 44 5 -4 5 1 2 11 -4 10 -1 24 6 32 16
19 33 19 17 0z m160 -37 c0 -5 -7 -3 -15 6 -8 8 -15 18 -15 22 0 3 7 1 15 -6
8 -7 15 -17 15 -22z m155 22 c3 -5 1 -10 -4 -10 -6 0 -11 5 -11 10 0 6 2 10 4
10 3 0 8 -4 11 -10z m55 -11 c0 -6 -4 -7 -10 -4 -5 3 -10 11 -10 16 0 6 5 7
10 4 6 -3 10 -11 10 -16z m70 11 c0 -5 -4 -10 -10 -10 -5 0 -10 5 -10 10 0 6
5 10 10 10 6 0 10 -4 10 -10z m-156 -16 c3 -8 2 -12 -4 -9 -6 3 -10 10 -10 16
0 14 7 11 14 -7z m206 -4 c0 -5 -5 -10 -11 -10 -5 0 -7 5 -4 10 3 6 8 10 11
10 2 0 4 -4 4 -10z m180 0 c0 -5 -7 -10 -15 -10 -8 0 -15 5 -15 10 0 6 7 10
15 10 8 0 15 -4 15 -10z m-533 -15 c8 -8 13 -19 11 -24 -2 -5 -11 2 -21 15
-20 27 -14 32 10 9z m328 -5 c3 -5 1 -10 -4 -10 -6 0 -11 5 -11 10 0 6 2 10 4
10 3 0 8 -4 11 -10z m65 -11 c0 -4 -7 -6 -15 -3 -8 4 -15 10 -15 15 0 4 7 6
15 3 8 -4 15 -10 15 -15z m88 3 c3 -9 -2 -13 -14 -10 -9 1 -19 9 -22 16 -3 9
2 13 14 10 9 -1 19 -9 22 -16z m-600 -11 c3 -8 -1 -12 -9 -9 -7 2 -15 10 -17
17 -3 8 1 12 9 9 7 -2 15 -10 17 -17z m116 -31 c-3 -2 -9 2 -14 10 -5 8 -12
11 -16 7 -4 -4 -2 -13 4 -19 8 -8 9 -15 1 -25 -9 -9 -8 -17 1 -28 9 -10 9 -15
1 -15 -6 0 -11 5 -11 10 0 6 -4 10 -10 10 -5 0 -7 -8 -4 -17 3 -10 -5 -5 -20
12 -14 17 -26 26 -26 20 0 -5 11 -23 25 -39 14 -16 25 -33 25 -37 0 -16 31 4
46 30 8 14 13 19 10 9 -7 -24 5 -30 20 -10 11 16 14 15 33 -7 12 -13 21 -28
21 -33 0 -5 -11 4 -25 19 -13 15 -25 22 -25 15 0 -7 9 -22 20 -34 11 -12 17
-24 14 -27 -4 -3 -9 0 -11 7 -3 6 -9 12 -14 12 -6 0 -5 -8 1 -20 6 -11 8 -25
5 -30 -6 -10 13 -24 35 -25 11 0 15 -12 16 -42 2 -41 -9 -57 -19 -30 -4 7 -6
8 -6 1 -1 -6 6 -17 14 -24 10 -9 15 -9 15 -1 0 6 5 11 11 11 6 0 8 -9 4 -22
-5 -18 -4 -20 4 -8 8 12 13 12 23 2 10 -10 9 -15 -4 -28 -14 -14 -21 -10 -77
44 -33 33 -61 64 -61 70 0 5 -6 12 -14 15 -24 9 -92 100 -78 104 6 3 12 9 12
15 0 7 -5 6 -14 -1 -11 -9 -16 -9 -22 0 -4 7 -2 15 4 17 7 2 12 8 12 14 0 6
-6 5 -15 -2 -9 -7 -19 -9 -23 -5 -4 4 -1 10 6 12 6 3 12 9 12 14 0 6 11 21 24
35 19 21 24 23 29 10 4 -10 1 -13 -9 -9 -15 6 -20 -12 -5 -21 13 -8 41 4 41
17 0 6 -8 19 -17 29 -16 18 -16 18 0 12 12 -4 17 -1 17 11 0 14 4 13 19 -6 11
-13 17 -26 15 -29z m86 -15 c10 -15 7 -14 -13 4 -15 14 -27 29 -27 33 0 10 16
-5 40 -37z m160 35 c0 -5 -2 -10 -4 -10 -3 0 -8 5 -11 10 -3 6 -1 10 4 10 6 0
11 -4 11 -10z m-120 -32 c0 -5 -9 -3 -20 4 -11 7 -20 16 -20 20 0 5 9 3 20 -4
11 -7 20 -16 20 -20z m-77 -3 c23 -32 17 -32 -13 0 -13 14 -19 25 -14 25 5 0
17 -12 27 -25z m307 5 c0 -5 -2 -10 -4 -10 -3 0 -8 5 -11 10 -3 6 -1 10 4 10
6 0 11 -4 11 -10z m80 -5 c0 -8 -5 -15 -11 -15 -5 0 -8 4 -5 9 4 5 0 12 -6 14
-8 3 -6 6 5 6 9 1 17 -6 17 -14z m136 -12 c-7 -7 -26 7 -26 19 0 6 6 6 15 -2
9 -7 13 -15 11 -17z m-526 -30 c0 -7 -9 -2 -24 13 -9 8 -16 20 -16 26 0 6 9 1
20 -12 11 -13 20 -25 20 -27z m468 36 c-2 -6 -8 -10 -13 -10 -5 0 -11 4 -13
10 -2 6 4 11 13 11 9 0 15 -5 13 -11z m-333 -19 c3 -5 1 -10 -4 -10 -6 0 -11
5 -11 10 0 6 2 10 4 10 3 0 8 -4 11 -10z m-75 -58 c0 -3 -9 3 -20 13 -11 10
-20 23 -20 28 0 6 9 0 20 -13 11 -13 20 -25 20 -28z m110 38 c0 -5 -2 -10 -4
-10 -3 0 -8 5 -11 10 -3 6 -1 10 4 10 6 0 11 -4 11 -10z m250 0 c0 -5 -4 -10
-9 -10 -6 0 -13 5 -16 10 -3 6 1 10 9 10 9 0 16 -4 16 -10z m70 -16 c0 -14 -3
-14 -15 -4 -8 7 -15 14 -15 16 0 2 7 4 15 4 8 0 15 -7 15 -16z m-150 -4 c0 -5
-4 -10 -10 -10 -5 0 -10 5 -10 10 0 6 5 10 10 10 6 0 10 -4 10 -10z m-410 -10
c0 -5 -4 -10 -10 -10 -5 0 -10 5 -10 10 0 6 5 10 10 10 6 0 10 -4 10 -10z
m235 -10 c10 -11 16 -20 13 -20 -3 0 -13 9 -23 20 -10 11 -16 20 -13 20 3 0
13 -9 23 -20z m405 0 c0 -5 -4 -10 -9 -10 -6 0 -13 5 -16 10 -3 6 1 10 9 10 9
0 16 -4 16 -10z m-330 -10 c0 -5 -5 -10 -11 -10 -5 0 -7 5 -4 10 3 6 8 10 11
10 2 0 4 -4 4 -10z m150 0 c0 -5 -4 -10 -10 -10 -5 0 -10 5 -10 10 0 6 5 10
10 10 6 0 10 -4 10 -10z m50 -21 c0 -4 -7 -6 -15 -3 -8 4 -15 10 -15 15 0 4 7
6 15 3 8 -4 15 -10 15 -15z m67 15 c-3 -3 -12 -4 -19 -1 -8 3 -5 6 6 6 11 1
17 -2 13 -5z m-454 -29 c-3 -9 -8 -14 -10 -11 -3 3 -2 9 2 15 9 16 15 13 8 -4z
m477 -1 c0 -17 -22 -14 -28 4 -2 7 3 12 12 12 9 0 16 -7 16 -16z m-344 -18
c-1 -18 -4 -22 -13 -14 -10 8 -10 13 0 23 7 8 13 14 13 15 1 0 1 -11 0 -24z
m-27 -24 c8 -14 5 -18 -12 -19 -16 -2 -18 0 -8 7 13 7 13 11 0 26 -8 11 -9 15
-2 10 7 -4 17 -15 22 -24z m449 9 c3 -8 -1 -12 -9 -9 -7 2 -15 10 -17 17 -3 8
1 12 9 9 7 -2 15 -10 17 -17z m-548 -6 c0 -2 -9 -3 -19 -2 -11 0 -18 5 -15 9
4 6 34 0 34 -7z m270 5 c0 -5 -2 -10 -4 -10 -3 0 -8 5 -11 10 -3 6 -1 10 4 10
6 0 11 -4 11 -10z m217 -26 c-9 -9 -28 6 -21 18 4 6 10 6 17 -1 6 -6 8 -13 4
-17z m-187 -14 c0 -5 -2 -10 -4 -10 -3 0 -8 5 -11 10 -3 6 -1 10 4 10 6 0 11
-4 11 -10z m2950 -65 l65 -70 -60 55 c-33 30 -63 59 -67 64 -3 5 -36 -17 -72
-50 -328 -294 -628 -465 -1020 -578 -191 -56 -536 -106 -536 -78 0 9 99 56
118 55 6 0 12 4 12 9 0 6 7 8 15 4 8 -3 19 2 24 12 9 15 11 14 20 -8 l10 -25
0 24 c1 23 2 24 21 6 19 -17 20 -17 32 11 11 27 12 28 15 7 6 -35 26 -28 21 7
-3 16 -1 30 4 30 4 0 8 -6 8 -14 0 -7 7 -19 15 -26 12 -10 13 -7 5 21 -5 18
-7 35 -4 38 2 3 7 -4 10 -16 3 -12 13 -24 21 -27 12 -5 14 -1 9 21 l-6 28 14
-25 c8 -14 12 -29 9 -34 -4 -5 -1 -6 6 -1 8 4 10 18 7 34 -6 23 -5 24 7 9 18
-23 27 -23 27 0 0 14 2 15 9 2 6 -8 7 -18 4 -24 -3 -5 -1 -6 5 -2 5 3 13 0 16
-6 4 -7 4 -3 2 9 -6 31 14 41 22 12 l6 -24 6 25 c4 14 2 31 -3 38 -5 7 -7 15
-3 19 3 4 12 -8 18 -25 17 -43 28 -40 22 6 l-4 37 12 -35 c12 -35 12 -35 16
-8 4 33 22 37 22 6 1 -20 2 -20 15 7 9 20 14 24 14 13 1 -10 6 -18 12 -18 6 0
8 9 4 23 -6 21 -6 21 9 3 16 -19 16 -19 16 4 0 18 3 21 12 12 9 -9 14 -7 24 6
12 15 13 15 14 -8 1 -25 1 -25 10 -3 7 16 14 21 26 16 13 -5 16 -3 11 10 -3 9
-2 17 3 17 6 0 10 -4 10 -10 0 -5 5 -10 11 -10 5 0 8 4 5 8 -2 4 -1 14 5 22 6
10 9 11 9 3 0 -7 5 -13 11 -13 6 0 9 9 6 20 -3 11 -1 20 4 20 5 0 9 -7 9 -15
0 -26 44 -13 51 15 l6 25 11 -25 c10 -24 11 -24 11 -2 1 24 15 29 27 10 5 -7
11 -3 17 13 6 15 11 19 14 11 4 -10 13 -6 33 13 16 15 27 21 27 13 -1 -7 3
-14 8 -15 6 -2 10 3 10 10 0 12 14 27 27 27 3 0 4 -10 1 -22 -3 -13 -3 -20 0
-17 5 4 10 20 16 58 1 3 8 -4 16 -15 14 -19 14 -19 15 1 0 17 2 17 10 5 7 -11
10 -11 10 -2 0 7 6 10 13 7 6 -4 4 0 -6 8 -12 10 -14 17 -8 22 6 3 11 2 11 -4
0 -14 30 -7 41 10 7 12 9 12 9 0 0 -11 6 -8 20 7 12 12 25 22 30 22 6 0 10 8
11 18 0 11 2 12 6 4 4 -9 10 -7 22 7 10 12 21 18 25 14 3 -3 6 0 6 8 0 11 2
11 10 -1 8 -13 10 -13 10 2 0 9 9 20 20 23 11 4 32 17 45 31 13 13 28 24 33
24 5 0 17 9 27 20 9 10 22 18 29 17 6 -1 10 4 8 12 -2 8 3 11 12 8 8 -3 16 -3
18 1 2 4 21 20 43 36 22 17 44 36 48 44 12 18 13 17 87 -63z m-3156 53 c-4 -6
2 -18 12 -26 14 -11 15 -13 3 -9 -9 3 -23 0 -30 -6 -11 -10 -11 -9 -1 4 6 9 9
19 6 22 -6 6 3 27 12 27 3 0 2 -5 -2 -12z m86 -43 c0 -4 -9 4 -20 18 -11 14
-20 28 -20 32 0 4 9 -4 20 -18 11 -14 20 -28 20 -32z m255 45 c3 -5 2 -10 -4
-10 -5 0 -13 5 -16 10 -3 6 -2 10 4 10 5 0 13 -4 16 -10z m135 0 c0 -5 -4 -10
-9 -10 -6 0 -13 5 -16 10 -3 6 1 10 9 10 9 0 16 -4 16 -10z m-292 -25 c-3 -3
-9 2 -12 12 -6 14 -5 15 5 6 7 -7 10 -15 7 -18z m237 -4 c3 -5 1 -12 -5 -16
-5 -3 -10 1 -10 9 0 18 6 21 15 7z m115 -11 c0 -5 -2 -10 -4 -10 -3 0 -8 5
-11 10 -3 6 -1 10 4 10 6 0 11 -4 11 -10z m-40 -10 c0 -5 -4 -10 -9 -10 -6 0
-13 5 -16 10 -3 6 1 10 9 10 9 0 16 -4 16 -10z m-130 -10 c0 -5 -2 -10 -4 -10
-3 0 -8 5 -11 10 -3 6 -1 10 4 10 6 0 11 -4 11 -10z m-278 -12 c-8 -8 -8 -17
-1 -32 10 -20 10 -20 -5 -2 -12 14 -13 23 -5 33 6 7 14 13 17 13 3 0 1 -5 -6
-12z m358 -8 c0 -5 -2 -10 -4 -10 -3 0 -8 5 -11 10 -3 6 -1 10 4 10 6 0 11 -4
11 -10z m70 -10 c0 -5 -4 -10 -10 -10 -5 0 -10 5 -10 10 0 6 5 10 10 10 6 0
10 -4 10 -10z m45 0 c3 -5 1 -10 -4 -10 -6 0 -11 5 -11 10 0 6 2 10 4 10 3 0
8 -4 11 -10z m-357 -32 c7 -7 12 -17 12 -22 0 -6 -5 -3 -11 7 -5 9 -15 17 -21
17 -6 0 -7 -8 -3 -17 5 -14 3 -15 -6 -6 -11 11 -5 33 10 33 4 0 12 -5 19 -12z
m196 -14 c3 -8 2 -12 -4 -9 -6 3 -10 10 -10 16 0 14 7 11 14 -7z m-279 -4 c3
-5 0 -7 -9 -4 -9 3 -17 -3 -21 -16 -4 -12 -9 -19 -12 -17 -7 7 16 47 27 47 5
0 12 -4 15 -10z m365 0 c0 -5 -2 -10 -4 -10 -3 0 -8 5 -11 10 -3 6 -1 10 4 10
6 0 11 -4 11 -10z m57 4 c-3 -3 -12 -4 -19 -1 -8 3 -5 6 6 6 11 1 17 -2 13 -5z
m-172 -14 c3 -5 1 -10 -4 -10 -6 0 -11 5 -11 10 0 6 2 10 4 10 3 0 8 -4 11
-10z m-125 -45 c0 -5 -5 -3 -10 5 -5 8 -10 20 -10 25 0 6 5 3 10 -5 5 -8 10
-19 10 -25z m220 14 c0 -6 -4 -7 -10 -4 -5 3 -10 11 -10 16 0 6 5 7 10 4 6 -3
10 -11 10 -16z m100 1 c0 -5 -2 -10 -4 -10 -3 0 -8 5 -11 10 -3 6 -1 10 4 10
6 0 11 -4 11 -10z m2605 -100 c50 -52 105 -107 123 -123 17 -16 32 -34 32 -40
0 -6 -51 38 -113 99 -62 60 -123 117 -135 127 -13 10 -20 22 -17 28 10 15 11
13 110 -91z m-2834 15 c7 -13 3 -12 -10 5 -11 14 -21 30 -21 35 0 11 14 -7 31
-40z m-90 12 c-10 -9 -11 -8 -5 6 3 10 9 15 12 12 3 -3 0 -11 -7 -18z m30 0
c-10 -9 -11 -8 -5 6 3 10 9 15 12 12 3 -3 0 -11 -7 -18z m184 13 c3 -5 1 -10
-4 -10 -6 0 -11 5 -11 10 0 6 2 10 4 10 3 0 8 -4 11 -10z m-265 -4 c0 -3 -4
-8 -10 -11 -5 -3 -10 -1 -10 4 0 6 5 11 10 11 6 0 10 -2 10 -4z m240 -21 c14
-19 14 -19 -2 -6 -10 7 -18 18 -18 24 0 6 1 8 3 6 1 -2 9 -13 17 -24z m180 15
c0 -5 -2 -10 -4 -10 -3 0 -8 5 -11 10 -3 6 -1 10 4 10 6 0 11 -4 11 -10z
m-300 -35 c0 -5 -5 -3 -10 5 -5 8 -10 20 -10 25 0 6 5 3 10 -5 5 -8 10 -19 10
-25z m250 25 c0 -5 -2 -10 -4 -10 -3 0 -8 5 -11 10 -3 6 -1 10 4 10 6 0 11 -4
11 -10z m90 -20 c0 -5 -4 -10 -10 -10 -5 0 -10 5 -10 10 0 6 5 10 10 10 6 0
10 -4 10 -10z m-190 -20 c0 -5 -4 -10 -10 -10 -5 0 -10 5 -10 10 0 6 5 10 10
10 6 0 10 -4 10 -10z m230 -20 c0 -5 -4 -10 -10 -10 -5 0 -10 5 -10 10 0 6 5
10 10 10 6 0 10 -4 10 -10z m-317 -43 c8 8 37 -16 37 -31 0 -6 -7 -3 -14 7 -9
11 -17 14 -20 8 -9 -14 -36 -2 -36 16 0 12 3 13 13 4 8 -6 17 -8 20 -4z m282
3 c3 -5 1 -10 -4 -10 -6 0 -11 5 -11 10 0 6 2 10 4 10 3 0 8 -4 11 -10z m-91
-36 c3 -8 2 -12 -4 -9 -6 3 -10 10 -10 16 0 14 7 11 14 -7z m186 -14 c0 -5 -2
-10 -4 -10 -3 0 -8 5 -11 10 -3 6 -1 10 4 10 6 0 11 -4 11 -10z m-200 -10 c0
-5 -2 -10 -4 -10 -3 0 -8 5 -11 10 -3 6 -1 10 4 10 6 0 11 -4 11 -10z m240 0
c0 -5 -2 -10 -4 -10 -3 0 -8 5 -11 10 -3 6 -1 10 4 10 6 0 11 -4 11 -10z
m-146 -27 c10 -25 3 -23 -17 3 -13 18 -14 22 -3 18 8 -3 17 -13 20 -21z m-64
7 c0 -5 -2 -10 -4 -10 -3 0 -8 5 -11 10 -3 6 -1 10 4 10 6 0 11 -4 11 -10z
m172 -52 c-6 -6 -9 0 -9 18 0 23 1 24 9 10 7 -12 7 -21 0 -28z m-172 22 c0 -5
-4 -10 -10 -10 -5 0 -10 5 -10 10 0 6 5 10 10 10 6 0 10 -4 10 -10z m2786 -13
c47 -54 43 -62 -6 -12 -19 19 -29 35 -24 35 6 0 19 -10 30 -23z m-2687 -6 c7
-5 9 -11 5 -14 -5 -3 -15 1 -22 9 -14 16 -5 18 17 5z m39 -30 c1 -27 -1 -29
-23 -21 -12 5 -26 6 -31 2 -4 -4 -4 -1 0 6 5 8 16 10 28 6 14 -4 18 -2 14 5
-6 9 0 31 8 31 2 0 3 -13 4 -29z m116 13 c3 -8 2 -12 -4 -9 -6 3 -10 10 -10
16 0 14 7 11 14 -7z m-54 -4 c0 -5 -5 -10 -11 -10 -5 0 -7 5 -4 10 3 6 8 10
11 10 2 0 4 -4 4 -10z m-30 -30 c0 -11 -4 -20 -8 -20 -4 0 -8 9 -8 20 0 11 4
20 8 20 4 0 8 -9 8 -20z m61 3 c1 -10 1 -26 0 -35 -3 -21 15 -24 22 -5 3 7 6
4 6 -6 1 -10 6 -15 12 -12 6 4 8 13 5 21 -3 8 -1 14 5 14 6 0 8 -14 5 -36 -4
-22 -2 -33 4 -29 5 3 10 1 10 -4 0 -6 4 -11 10 -11 5 0 7 8 4 18 -4 12 -1 11
13 -6 15 -18 21 -20 31 -10 6 6 12 19 13 27 0 9 7 1 15 -16 13 -31 34 -45 34
-23 0 6 4 10 9 10 5 0 7 -10 5 -22 -2 -13 2 -7 10 12 l14 35 3 -35 c4 -34 4
-35 10 -7 4 18 1 33 -8 43 -16 15 -6 19 16 5 7 -5 11 -17 7 -27 -3 -11 -1 -26
5 -34 9 -12 10 -12 5 4 -5 13 -2 17 9 12 8 -3 15 -1 15 4 0 6 -4 10 -10 10 -5
0 -10 8 -10 17 0 14 4 12 17 -7 22 -33 36 -41 44 -28 4 7 8 7 13 0 3 -6 31
-18 61 -26 74 -22 82 -39 13 -31 -188 22 -346 54 -475 96 -48 16 -63 25 -63
40 0 10 5 19 10 19 6 0 10 -8 10 -17 0 -12 3 -14 8 -6 9 14 26 5 35 -17 3 -9
6 -3 6 13 1 16 5 26 11 22 6 -4 8 -11 5 -16 -4 -5 -2 -9 4 -9 6 0 9 -6 7 -12
-1 -7 -1 -10 1 -5 8 13 23 7 23 -9 0 -13 3 -14 14 -5 11 9 15 9 18 -1 3 -8 6
-7 11 4 4 12 1 16 -11 13 -27 -5 -47 17 -48 53 0 33 15 46 17 15z m46 -5 c-3
-8 -6 -5 -6 6 -1 11 2 17 5 13 3 -3 4 -12 1 -19z m-77 2 c0 -5 -5 -10 -11 -10
-5 0 -7 5 -4 10 3 6 8 10 11 10 2 0 4 -4 4 -10z m114 -6 c3 -8 2 -12 -4 -9 -6
3 -10 10 -10 16 0 14 7 11 14 -7z m64 -20 c0 -17 -3 -22 -8 -13 -5 6 -6 18 -3
26 8 19 11 16 11 -13z m2685 -209 c86 -94 77 -86 -66 55 -92 91 -167 169 -167
175 0 12 106 -92 233 -230z m-2713 209 c0 -8 -5 -12 -10 -9 -6 4 -8 11 -5 16
9 14 15 11 15 -7z m-19 -26 c11 -20 10 -21 -3 -11 -8 7 -18 10 -22 6 -4 -4 -4
0 0 10 8 22 11 22 25 -5z m76 -45 c-3 -10 -5 -4 -5 12 0 17 2 24 5 18 2 -7 2
-21 0 -30z m710 5 c-3 -7 -5 -2 -5 12 0 14 2 19 5 13 2 -7 2 -19 0 -25z m2064
-275 c13 -16 12 -17 -3 -4 -10 7 -18 15 -18 17 0 8 8 3 21 -13z"/>
<path d="M917 3504 c-8 -8 1 -24 14 -24 5 0 9 7 9 15 0 15 -12 20 -23 9z"/>
<path d="M546 2841 c-4 -7 -5 -15 -2 -18 9 -9 19 4 14 18 -4 11 -6 11 -12 0z"/>
<path d="M2461 2514 c-31 -39 -29 -123 2 -160 26 -29 76 -36 103 -13 39 32 42
141 3 180 -29 29 -83 25 -108 -7z"/>
<path d="M2801 2514 c-31 -39 -29 -123 2 -160 26 -30 74 -37 101 -14 41 33 44
142 5 181 -29 29 -83 25 -108 -7z"/>
<path d="M547 2160 c-41 -25 -46 -33 -12 -19 34 14 51 27 44 32 -2 3 -16 -3
-32 -13z"/>
<path d="M591 2053 c-7 -8 -11 -16 -8 -19 6 -7 37 7 37 16 0 16 -15 18 -29 3z"/>
<path d="M526 2041 c-4 -7 -5 -15 -2 -18 9 -9 19 4 14 18 -4 11 -6 11 -12 0z"/>
<path d="M553 2005 c-15 -16 -16 -25 -5 -25 4 0 13 9 20 20 14 23 3 26 -15 5z"/>
<path d="M555 1930 c-3 -5 -1 -10 4 -10 6 0 11 5 11 10 0 6 -2 10 -4 10 -3 0
-8 -4 -11 -10z"/>
<path d="M596 1825 c-9 -26 -7 -32 5 -12 6 10 9 21 6 23 -2 3 -7 -2 -11 -11z"/>
<path d="M740 1650 c0 -5 5 -10 10 -10 6 0 10 5 10 10 0 6 -4 10 -10 10 -5 0
-10 -4 -10 -10z"/>
<path d="M665 1629 c-10 -30 -2 -32 12 -3 6 13 7 24 3 24 -5 0 -12 -9 -15 -21z"/>
<path d="M690 1540 c0 -5 5 -10 11 -10 5 0 7 5 4 10 -3 6 -8 10 -11 10 -2 0
-4 -4 -4 -10z"/>
<path d="M996 1138 c-12 -14 -14 -19 -4 -16 7 3 24 -3 37 -13 13 -11 19 -19
13 -19 -15 0 -24 -32 -12 -44 8 -8 9 -6 5 7 -4 9 -3 17 3 17 12 0 24 -29 17
-41 -4 -5 1 -6 11 -2 13 5 15 2 10 -18 -3 -13 -3 -19 0 -12 3 7 13 9 22 6 14
-6 15 -4 4 9 -10 13 -10 17 0 21 7 2 9 8 5 13 -4 5 -12 2 -16 -5 -7 -11 -13
-8 -26 12 -9 14 -14 30 -11 36 4 5 -6 19 -21 31 -25 20 -26 22 -5 16 25 -8 31
8 6 18 -9 3 -17 6 -18 6 -1 0 -10 -10 -20 -22z"/>
<path d="M1007 1093 c4 -11 2 -14 -5 -9 -7 4 -12 2 -12 -3 0 -15 15 -14 29 3
9 10 8 15 -3 19 -11 4 -13 1 -9 -10z"/>
<path d="M2171 384 c0 -11 3 -14 6 -6 3 7 2 16 -1 19 -3 4 -6 -2 -5 -13z"/>
<path d="M4103 5057 c-23 -34 -74 -107 -113 -162 -132 -187 -310 -460 -310
-476 0 -4 26 -22 58 -39 95 -54 200 -128 300 -212 l94 -80 46 44 45 43 -38
-48 -38 -48 80 -82 c121 -125 279 -331 328 -427 10 -19 19 -36 20 -38 2 -2 20
7 42 20 21 13 143 82 271 153 l232 128 0 125 c0 114 -1 124 -17 118 -17 -6
-17 -5 0 8 16 12 17 34 15 250 l-3 236 -140 -120 c-77 -67 -161 -139 -187
-161 -25 -22 -49 -35 -52 -30 -6 8 197 196 321 296 l62 50 0 258 1 257 -44 0
c-34 0 -48 -5 -59 -20 -23 -33 -559 -580 -568 -580 -33 0 25 67 273 316 l282
284 -430 0 -429 0 -42 -63z m797 -1112 c0 -2 -20 -18 -45 -35 -25 -17 -45 -29
-45 -26 0 4 80 64 88 66 1 0 2 -2 2 -5z m-105 -74 c-23 -23 -210 -150 -214
-146 -6 7 -8 5 108 84 98 66 128 84 106 62z"/>
<path d="M1795 4490 c-3 -5 -1 -10 4 -10 6 0 11 5 11 10 0 6 -2 10 -4 10 -3 0
-8 -4 -11 -10z"/>
<path d="M1674 4435 c-4 -8 -10 -13 -14 -10 -10 6 -7 -21 3 -31 10 -10 9 -24
-2 -24 -5 0 -14 12 -19 28 -6 15 -11 20 -11 11 -1 -19 -31 -35 -31 -16 0 7 -9
-7 -20 -30 -10 -24 -24 -43 -30 -43 -6 0 -9 -4 -6 -8 2 -4 1 -14 -5 -22 -6
-11 -9 -12 -9 -2 0 7 -4 10 -10 7 -14 -8 -12 7 3 26 7 9 17 14 22 12 6 -2 12
8 13 22 2 26 -12 34 -24 13 -4 -7 -3 -8 4 -4 7 4 12 2 12 -3 0 -10 -14 -15
-34 -12 -5 1 -6 -5 -3 -14 4 -8 2 -15 -2 -15 -5 0 -12 6 -14 13 -4 9 -6 9 -6
-1 -1 -7 -5 -10 -11 -7 -6 3 -7 -1 -4 -9 3 -9 2 -16 -4 -16 -5 0 -13 -11 -16
-25 -4 -14 -11 -25 -16 -25 -13 0 -13 17 0 25 13 8 13 25 -1 25 -5 0 -8 -4 -4
-9 3 -6 -3 -15 -14 -20 -14 -8 -20 -8 -23 1 -3 7 -7 3 -10 -10 -5 -19 -3 -20
12 -12 13 7 21 7 25 0 3 -5 1 -10 -6 -10 -7 0 -10 -3 -7 -6 10 -9 69 26 63 36
-4 6 1 20 9 32 11 16 16 18 16 7 0 -8 -4 -19 -9 -24 -6 -6 -5 -17 4 -28 9 -13
15 -15 20 -6 4 6 1 15 -6 20 -9 7 -5 7 14 3 17 -4 27 -2 27 6 0 6 4 9 9 5 5
-3 12 -1 16 5 3 5 1 10 -5 10 -6 0 -4 10 6 25 9 14 21 22 26 19 6 -4 5 -9 -2
-14 -9 -6 -7 -10 8 -14 21 -7 67 26 55 38 -4 3 -1 6 5 6 7 0 12 6 12 14 0 7 7
19 15 26 16 14 10 34 -7 24 -7 -5 -9 -1 -5 9 3 10 4 17 1 17 -2 0 -7 -7 -10
-15z m6 -35 c0 -5 -2 -10 -4 -10 -3 0 -8 5 -11 10 -3 6 -1 10 4 10 6 0 11 -4
11 -10z m-50 -35 c-11 -13 -10 -15 6 -9 15 5 16 4 5 -4 -15 -10 -51 1 -51 15
0 3 3 4 6 0 4 -3 13 1 21 9 19 19 30 10 13 -11z"/>
<path d="M3470 4429 c0 -5 5 -7 10 -4 6 3 10 8 10 11 0 2 -4 4 -10 4 -5 0 -10
-5 -10 -11z"/>
<path d="M3505 4420 c-3 -5 -1 -10 4 -10 6 0 11 5 11 10 0 6 -2 10 -4 10 -3 0
-8 -4 -11 -10z"/>
<path d="M3696 4296 c6 -15 34 -30 34 -18 0 4 -9 13 -20 19 -16 11 -18 10 -14
-1z"/>
<path d="M1357 4256 c-10 -8 -14 -16 -10 -19 5 -3 14 3 21 14 14 22 13 23 -11
5z"/>
<path d="M1312 4213 c2 -10 8 -22 13 -26 6 -5 -1 -6 -15 -2 -24 6 -24 5 -6
-10 25 -19 42 -5 27 24 -8 14 -8 21 -1 21 5 0 10 -4 10 -10 0 -5 10 -14 23
-20 21 -11 21 -10 3 4 -11 9 -16 16 -10 16 14 0 -19 20 -34 20 -7 0 -12 -8
-10 -17z"/>
<path d="M1248 4163 c19 -7 4 -23 -16 -17 -12 4 -10 0 6 -13 13 -10 20 -22 16
-26 -12 -11 -26 -8 -18 4 5 8 1 8 -13 0 -11 -6 -24 -7 -28 -3 -5 4 -5 1 0 -7
4 -8 2 -17 -6 -22 -9 -6 -10 -9 -2 -9 7 0 16 6 20 14 5 9 15 11 28 5 16 -6 17
-8 3 -8 -9 -1 -20 -6 -23 -11 -4 -7 3 -9 22 -5 24 5 25 5 10 -5 -10 -7 -27
-10 -37 -7 -10 2 -24 0 -31 -5 -11 -8 -10 -9 4 -4 9 3 17 1 17 -4 0 -20 33 -9
61 21 16 17 34 32 41 33 7 1 19 6 27 10 10 6 12 5 7 -2 -4 -7 -2 -12 3 -12 6
0 11 4 11 9 0 5 7 17 16 26 9 9 14 19 10 22 -3 4 -12 -2 -20 -12 -12 -17 -14
-17 -30 6 -15 21 -19 22 -29 9 -7 -8 -21 -16 -32 -18 -19 -3 -19 -2 2 15 l23
18 -28 1 c-15 1 -21 -1 -14 -3z m61 -54 c-17 -11 -32 -7 -35 9 -1 7 0 8 2 3 9
-16 33 -1 28 17 -4 13 -3 13 6 -2 10 -15 9 -20 -1 -27z"/>
<path d="M1335 4150 c-3 -5 -1 -10 4 -10 6 0 11 5 11 10 0 6 -2 10 -4 10 -3 0
-8 -4 -11 -10z"/>
<path d="M1119 4053 c-13 -16 -12 -17 4 -4 9 7 17 15 17 17 0 8 -8 3 -21 -13z"/>
<path d="M1125 4031 c-3 -5 0 -13 6 -17 8 -4 9 -3 5 4 -4 7 -3 12 3 12 5 0 11
-6 14 -12 2 -7 8 -9 13 -5 5 4 2 12 -6 17 -19 12 -27 12 -35 1z"/>
<path d="M1180 4020 c0 -5 5 -10 10 -10 6 0 10 5 10 10 0 6 -4 10 -10 10 -5 0
-10 -4 -10 -10z"/>
<path d="M1135 3990 c-3 -6 1 -7 9 -4 18 7 21 14 7 14 -6 0 -13 -4 -16 -10z"/>
<path d="M1090 3980 c0 -5 8 -10 18 -10 9 0 13 -4 7 -8 -5 -4 -10 -13 -11 -19
-1 -7 -2 -20 -2 -28 -1 -8 -8 -15 -16 -15 -8 0 -18 -4 -21 -10 -3 -5 3 -10 13
-10 13 0 24 10 30 28 5 15 13 35 17 44 4 11 0 20 -14 28 -14 7 -21 7 -21 0z"/>
<path d="M1074 3966 c5 -15 2 -18 -19 -14 -14 3 -25 1 -25 -3 0 -5 12 -9 26
-9 14 0 23 -4 19 -10 -3 -5 -12 -7 -19 -4 -8 3 -17 1 -21 -5 -4 -7 0 -8 11 -4
11 4 15 3 11 -4 -5 -7 0 -9 12 -6 27 7 32 25 14 54 -8 14 -12 16 -9 5z"/>
<path d="M1006 3923 c-6 -14 -5 -15 5 -6 7 7 10 15 7 18 -3 3 -9 -2 -12 -12z"/>
<path d="M966 3875 c-3 -8 -1 -15 4 -15 6 0 10 7 10 15 0 8 -2 15 -4 15 -2 0
-6 -7 -10 -15z"/>
<path d="M990 3870 c0 -5 5 -10 11 -10 5 0 7 5 4 10 -3 6 -8 10 -11 10 -2 0
-4 -4 -4 -10z"/>
<path d="M1070 3860 c0 -5 5 -10 10 -10 6 0 10 5 10 10 0 6 -4 10 -10 10 -5 0
-10 -4 -10 -10z"/>
<path d="M956 3824 c-5 -14 -4 -15 9 -4 17 14 19 20 6 20 -5 0 -12 -7 -15 -16z"/>
<path d="M970 3800 c0 -5 5 -10 10 -10 6 0 10 5 10 10 0 6 -4 10 -10 10 -5 0
-10 -4 -10 -10z"/>
<path d="M5065 3767 c-77 -45 -300 -169 -391 -216 l-81 -42 63 -138 c34 -76
77 -184 95 -239 l33 -101 30 6 c37 7 298 82 303 87 2 1 2 154 1 338 l-3 334
-50 -29z"/>
<path d="M800 3630 c0 -5 5 -10 11 -10 5 0 7 5 4 10 -3 6 -8 10 -11 10 -2 0
-4 -4 -4 -10z"/>
<path d="M831 3617 c-5 -14 -15 -28 -20 -32 -6 -3 -11 -12 -11 -18 0 -8 4 -7
9 2 7 12 13 12 24 3 14 -12 27 -7 27 11 0 5 -7 7 -15 3 -18 -6 -19 -2 -4 26 6
11 8 22 5 25 -3 3 -10 -6 -15 -20z"/>
<path d="M765 3570 c-3 -5 -1 -10 4 -10 6 0 11 5 11 10 0 6 -2 10 -4 10 -3 0
-8 -4 -11 -10z"/>
<path d="M4420 3566 c0 -2 7 -9 15 -16 13 -11 14 -10 9 4 -5 14 -24 23 -24 12z"/>
<path d="M4515 3381 c-3 -5 -1 -12 5 -16 5 -3 10 1 10 9 0 18 -6 21 -15 7z"/>
<path d="M660 3370 c0 -5 5 -10 10 -10 6 0 10 5 10 10 0 6 -4 10 -10 10 -5 0
-10 -4 -10 -10z"/>
<path d="M650 3340 c0 -5 5 -10 11 -10 5 0 7 5 4 10 -3 6 -8 10 -11 10 -2 0
-4 -4 -4 -10z"/>
<path d="M4945 3042 c-82 -20 -151 -36 -151 -36 -1 -1 10 -64 26 -141 15 -77
31 -180 35 -228 l7 -87 129 0 129 0 0 265 c0 206 -3 265 -12 264 -7 0 -80 -17
-163 -37z"/>
<path d="M0 2585 l0 -265 46 0 47 0 -7 46 c-3 26 -6 145 -6 265 l0 219 -40 0
-40 0 0 -265z"/>
<path d="M725 1480 c-3 -6 1 -7 9 -4 18 7 21 14 7 14 -6 0 -13 -4 -16 -10z"/>
<path d="M1210 960 c0 -5 5 -10 10 -10 6 0 10 5 10 10 0 6 -4 10 -10 10 -5 0
-10 -4 -10 -10z"/>
<path d="M1185 910 c-9 -14 3 -30 19 -24 7 3 19 -2 26 -10 12 -16 30 -13 30 4
0 5 -7 7 -15 4 -8 -4 -17 1 -21 10 -5 14 -9 14 -22 4 -13 -11 -15 -10 -9 5 7
18 2 23 -8 7z"/>
<path d="M32 847 c-20 -21 -32 -43 -32 -61 l0 -28 38 23 c63 37 68 45 52 74
-7 14 -16 25 -20 25 -3 0 -20 -15 -38 -33z"/>
<path d="M1325 851 c-3 -6 4 -15 15 -21 23 -12 26 -5 6 16 -9 8 -17 10 -21 5z"/>
<path d="M1481 694 c0 -11 3 -14 6 -6 3 7 2 16 -1 19 -3 4 -6 -2 -5 -13z"/>
<path d="M1530 640 c0 -5 5 -10 11 -10 5 0 7 5 4 10 -3 6 -8 10 -11 10 -2 0
-4 -4 -4 -10z"/>
</g>
</svg>
