<?xml version="1.0" standalone="no"?>
<!DOCTYPE svg PUBLIC "-//W3C//DTD SVG 20010904//EN"
 "http://www.w3.org/TR/2001/REC-SVG-20010904/DTD/svg10.dtd">
<svg version="1.0" xmlns="http://www.w3.org/2000/svg"
 width="151.000000pt" height="151.000000pt" viewBox="0 0 151.000000 151.000000"
 preserveAspectRatio="xMidYMid meet">
<metadata>
Created by potrace 1.14, written by Peter Selinger 2001-2017
</metadata>
<g transform="translate(0.000000,151.000000) scale(0.100000,-0.100000)"
fill="#000000" stroke="none">
<path d="M756 1423 c-3 -4 -23 -7 -43 -9 -21 -1 -39 -7 -41 -12 -1 -5 -12 -7
-24 -4 -16 4 -19 2 -13 -8 5 -9 4 -11 -3 -6 -6 4 -22 1 -34 -6 -13 -6 -29 -13
-36 -14 -8 -1 -23 -11 -34 -21 -11 -10 -23 -18 -27 -17 -9 0 -27 -14 -82 -67
-27 -25 -51 -44 -54 -41 -3 3 -5 -2 -5 -12 0 -9 -4 -15 -8 -12 -5 3 -15 -6
-22 -19 -7 -13 -17 -22 -22 -19 -4 3 -11 -3 -15 -12 -8 -22 -40 -54 -46 -47
-3 2 -4 -8 -2 -23 1 -16 8 -30 14 -32 20 -7 13 -42 -9 -42 -11 0 -20 4 -20 9
0 20 -61 8 -79 -15 -10 -13 -21 -20 -25 -17 -3 3 -6 -1 -6 -10 0 -9 -4 -17
-10 -17 -5 0 -9 -11 -8 -25 1 -14 6 -25 10 -25 4 0 21 -15 38 -32 76 -83 126
-128 143 -128 20 0 74 49 79 71 2 8 8 17 13 21 6 5 5 8 -3 8 -7 0 -10 5 -7 10
3 6 3 16 -2 23 -22 35 1 52 31 22 17 -18 42 -20 51 -4 4 6 27 -10 56 -39 27
-27 49 -47 49 -43 0 3 9 -7 19 -23 l19 -28 -65 -63 c-59 -57 -67 -62 -96 -56
-51 11 -123 3 -172 -19 -16 -7 -33 -13 -37 -12 -5 1 -8 -2 -8 -8 0 -5 -12 -16
-27 -24 -16 -8 -24 -15 -19 -16 4 0 -2 -9 -15 -20 -13 -10 -20 -19 -15 -20 5
0 3 -8 -6 -17 -28 -34 -36 -71 -33 -144 5 -97 5 -96 32 -108 13 -6 22 -8 20
-4 -3 5 1 14 9 21 8 7 14 9 14 5 0 -4 11 8 25 27 14 19 25 30 25 24 0 -5 8 3
18 19 10 15 22 24 25 20 4 -3 7 2 7 12 0 10 3 16 6 12 3 -3 18 8 33 24 24 26
33 29 67 25 21 -2 44 -5 49 -5 6 -1 11 -22 13 -49 l3 -47 -102 -104 c-96 -98
-100 -104 -81 -117 11 -7 34 -15 51 -16 17 -1 31 -5 31 -9 0 -4 14 -4 30 1 21
6 30 5 30 -3 0 -8 3 -8 8 -2 4 6 16 12 27 13 27 5 126 54 120 60 -2 3 7 13 20
24 14 11 23 24 20 29 -4 5 -2 9 3 9 11 0 37 57 37 82 0 9 3 19 6 22 6 7 3 74
-5 119 -3 19 0 27 10 27 8 0 13 3 11 8 -2 4 4 15 15 25 10 9 18 15 18 12 0 -3
16 13 37 35 l36 41 34 -36 c18 -19 37 -35 42 -35 5 0 13 -9 16 -20 4 -11 11
-18 16 -15 5 4 9 -1 9 -9 0 -8 8 -18 18 -21 9 -4 43 -35 74 -70 31 -35 59 -60
62 -57 3 3 6 -2 6 -11 0 -8 8 -18 18 -22 9 -3 28 -21 42 -40 14 -19 32 -37 40
-40 8 -3 26 -21 40 -39 14 -19 28 -32 33 -29 4 2 7 -3 7 -11 0 -9 6 -16 13
-16 7 0 18 -9 25 -20 10 -16 17 -18 37 -10 17 6 25 6 25 -1 0 -6 23 12 50 41
77 80 75 88 -72 234 -67 66 -121 123 -121 126 1 3 -10 14 -25 24 -15 10 -38
33 -52 52 -14 18 -29 34 -33 34 -8 0 -38 30 -99 97 -20 23 -39 39 -42 35 -3
-3 -6 -1 -6 5 0 14 131 143 146 143 7 0 15 -4 18 -8 4 -7 111 -9 111 -2 0 1 8
3 19 5 34 7 76 27 76 38 0 6 3 7 7 4 10 -11 77 66 100 114 36 76 25 229 -16
229 -10 0 -32 -16 -48 -35 -17 -19 -33 -32 -36 -28 -4 3 -7 1 -7 -4 0 -6 -24
-36 -53 -66 -52 -53 -55 -54 -102 -52 -49 3 -65 15 -60 44 1 9 -3 19 -9 23 -8
5 -7 8 2 8 7 0 10 4 7 10 -3 5 -1 18 4 27 6 10 11 14 11 8 0 -5 9 4 20 20 11
17 20 26 20 21 0 -6 11 5 25 24 14 19 25 30 25 24 0 -5 8 3 18 19 10 15 22 24
25 20 4 -3 7 1 7 10 0 10 4 16 9 15 5 -2 9 1 9 6 0 5 6 13 14 17 10 7 10 9 0
9 -7 0 -10 5 -7 10 6 9 -8 14 -27 11 -5 0 -8 3 -8 8 0 9 -144 13 -167 4 -7 -3
-10 -9 -7 -14 3 -5 2 -9 -3 -8 -56 10 -155 -98 -171 -186 -6 -32 -6 -88 1
-120 6 -27 0 -37 -62 -98 l-69 -68 -31 30 c-17 17 -31 33 -31 36 0 3 -16 19
-35 36 -31 27 -33 32 -20 46 23 22 18 36 -24 80 -22 22 -39 46 -38 54 3 14 65
81 82 88 6 2 29 17 53 33 23 16 42 26 42 23 0 -12 34 28 36 43 3 17 -20 44
-30 35z"/>
</g>
</svg>
